<?xml version="1.0" encoding="utf-8"?>
<svg xmlns="http://www.w3.org/2000/svg" viewBox="0 0 1200 2150" width="1200px" height="2150px">
  <defs>
    <marker id="arrowhead" markerWidth="10" markerHeight="10" refX="9" refY="3" orient="auto">
      <polygon points="0 0, 10 3, 0 6" fill="#333"/>
    </marker>
    <marker id="arrowhead-no" markerWidth="10" markerHeight="10" refX="9" refY="3" orient="auto">
      <polygon points="0 0, 10 3, 0 6" fill="#dc3545"/>
    </marker>
    <marker id="arrowhead-yes" markerWidth="10" markerHeight="10" refX="9" refY="3" orient="auto">
      <polygon points="0 0, 10 3, 0 6" fill="#28a745"/>
    </marker>
    <style>
  .title { font-family: Arial, sans-serif; font-size: 24px; font-weight: bold; fill: #1a1a1a; }
  .subtitle { font-family: Arial, sans-serif; font-size: 16px; fill: #555; }
  .box-text { font-family: Arial, sans-serif; font-size: 15px; fill: #1a1a1a; text-anchor: middle; }
  .box-text-small { font-family: Arial, sans-serif; font-size: 13px; fill: #1a1a1a; text-anchor: middle; }
  .box-label { font-family: Arial, sans-serif; font-size: 14px; font-weight: bold; fill: #1a1a1a; }
  .decision { fill: #fff3cd; stroke: #ffc107; stroke-width: 2; }
  .process { fill: #d4edda; stroke: #28a745; stroke-width: 2; }
  .start-end { fill: #cce5ff; stroke: #0066cc; stroke-width: 3; rx: 25; }
  .action { fill: #f8d7da; stroke: #dc3545; stroke-width: 2; }
  .data { fill: #e7f3ff; stroke: #007bff; stroke-width: 2; }
  .warning { fill: #fff3cd; stroke: #ff8800; stroke-width: 2; }
  .arrow { stroke: #333; stroke-width: 2; fill: none; marker-end: url(#arrowhead); }
  .arrow-yes { stroke: #28a745; stroke-width: 2.5; fill: none; marker-end: url(#arrowhead-yes); }
  .arrow-no { stroke: #dc3545; stroke-width: 2.5; fill: none; marker-end: url(#arrowhead-no); }
  .label { font-family: Arial, sans-serif; font-size: 14px; font-weight: bold; fill: #28a745; }
  .label-no { font-family: Arial, sans-serif; font-size: 14px; font-weight: bold; fill: #dc3545; }
  .note { font-family: Arial, sans-serif; font-size: 12px; fill: #666; font-style: italic; }
    </style>
  </defs>
  
  <!-- Białe tło -->
  <rect width="100%" height="100%" fill="white"/>
  
  <text x="600" y="40" class="title" text-anchor="middle" style="white-space: pre;" transform="matrix(1, 0, 0, 1, 0, 5.684341886080802e-14)">Algorytm WS</text>
  <text x="600" y="65" class="subtitle" text-anchor="middle" style="white-space: pre;" transform="matrix(1, 0, 0, 1, 0, 5.684341886080802e-14)">System BOGDANKA Szyb 2 - Wybór Scenariusza S0-S8</text>
  <rect x="429.153" y="100" width="342.81" height="60" class="start-end" style="" transform="matrix(1, 0, 0, 1, 0, 5.684341886080802e-14)"/>
  <text x="600" y="125" class="box-text" style="white-space: pre;" transform="matrix(1, 0, 0, 1, 0, 5.684341886080802e-14)">START - Główna pętla</text>
  <text x="600" y="145" class="box-text-small" style="white-space: pre;" transform="matrix(1, 0, 0, 1, 0, 5.684341886080802e-14)">(co CYKL_MONITORINGU_TEMP)</text>
  <path d="M 600 160 L 600 200" class="arrow" transform="matrix(1, 0, 0, 1, 0, 5.684341886080802e-14)"/>
  <rect x="450" y="200" width="300" height="80" class="process" transform="matrix(1, 0, 0, 1, 0, 5.684341886080802e-14)"/>
  <text x="600" y="225" class="box-text" style="white-space: pre;" transform="matrix(1, 0, 0, 1, 0, 5.684341886080802e-14)">KROK 0:</text>
  <text x="600" y="245" class="box-text" style="white-space: pre;" transform="matrix(1, 0, 0, 1, 0, 5.684341886080802e-14)">Aktualizuj statystyki</text>
  <text x="600" y="265" class="box-text-small" style="white-space: pre;" transform="matrix(1, 0, 0, 1, 0, 5.684341886080802e-14)">(czas w scenariuszu, liczniki)</text>
  <path d="M 600 280 L 600 330" class="arrow" transform="matrix(1, 0, 0, 1, 0, 5.684341886080802e-14)"/>
  <path d="M 600 330 L 730 390 L 600 450 L 470 390 Z" class="decision" transform="matrix(1, 0, 0, 1, 0, 5.684341886080802e-14)"/>
  <text x="600" y="380" class="box-text" style="white-space: pre;" transform="matrix(1, 0, 0, 1, 0, 5.684341886080802e-14)">KROK 1:</text>
  <text x="600" y="400" class="box-text-small" style="white-space: pre;" transform="matrix(1, 0, 0, 1, 0, 5.684341886080802e-14)">Tryb AUTO?</text>
  <path d="M 480.15 390 L 33.325 390 L 33.325 1965 L 436.909 1965" class="arrow-no" style="" transform="matrix(1, 0, 0, 1, 0, 5.684341886080802e-14)"/>
  <text x="390" y="380" class="label-no" style="white-space: pre;" transform="matrix(1, 0, 0, 1, 0, 5.684341886080802e-14)">NIE</text>
  <text x="240" y="420" class="note" style="white-space: pre;" transform="matrix(1, 0, 0, 1, 0, 5.684341886080802e-14)">Tryb MANUAL</text>
  <path d="M 600 450 L 600 500" class="arrow-yes" transform="matrix(1, 0, 0, 1, 0, 5.684341886080802e-14)"/>
  <text x="620" y="470" class="label" style="white-space: pre;" transform="matrix(1, 0, 0, 1, 0, 5.684341886080802e-14)">TAK</text>
  <rect x="450" y="500" width="300" height="80" class="data" transform="matrix(1, 0, 0, 1, 0, 5.684341886080802e-14)"/>
  <text x="600" y="525" class="box-text" style="white-space: pre;" transform="matrix(1, 0, 0, 1, 0, 5.684341886080802e-14)">KROK 2:</text>
  <text x="600" y="545" class="box-text" style="white-space: pre;" transform="matrix(1, 0, 0, 1, 0, 5.684341886080802e-14)">Odczytaj czujnik T_zewn_raw</text>
  <text x="600" y="565" class="box-text-small" style="white-space: pre;" transform="matrix(1, 0, 0, 1, 0, 5.684341886080802e-14)">(surowy odczyt z czujnika)</text>
  <path d="M 600 580 L 600 640" class="arrow" transform="matrix(1, 0, 0, 1, 0, 5.684341886080802e-14)"/>
  <g transform="matrix(1, 0, 0, 1, 0, 5.684341886080802e-14)">
    <path d="M 599.044 640 L 744.84 710 L 599.044 780 L 453.249 710 L 599.044 640 Z" class="decision" style=""/>
    <text x="600" y="706" class="box-text" style="white-space: pre; font-size: 15px;">KROK 2A: Odczyt prawidłowy?</text>
    <text x="600" y="726" class="box-text-small" style="white-space: pre; font-size: 13px;">(T_zewn ≠ ERROR/NULL)</text>
  </g>
  <text x="395.44" y="696.131" class="label-no" style="white-space: pre; font-size: 14px;" transform="matrix(1, 0, 0, 1, 0, 5.684341886080802e-14)">NIE</text>
  <text x="363.415" y="729.437" class="note" style="white-space: pre; font-size: 12px;" transform="matrix(1, 0, 0, 1, 0, 5.684341886080802e-14)">Awaria czujnika</text>
  <g transform="matrix(1, 0, 0, 1, 87.3546371459961, 148.10859680175787)">
    <path d="M 270 640 L 380 710 L 270 780 L 160 710 Z" class="decision"/>
    <text x="270" y="685" class="box-text" style="font-size: 13px; white-space: pre;">KROK 2B:</text>
    <text x="270" y="705" class="box-text-small" style="font-size: 11px; white-space: pre;">Czas od ostatniego</text>
    <text x="270" y="720" class="box-text-small" style="font-size: 11px; white-space: pre;">odczytu &lt;</text>
    <text x="270" y="735" class="box-text-small" style="font-size: 11px; white-space: pre;">CZAS_UTRZYMANIA?</text>
  </g>
  <path d="M 465.153 856.836 L 535.153 856.836 L 535.153 1003.34" class="arrow-yes" style="" transform="matrix(1, 0, 0, 1, 0, 5.684341886080802e-14)"/>
  <text x="475.391" y="842.221" class="label" style="white-space: pre; font-size: 14px;" transform="matrix(1, 0, 0, 1, 0, 5.684341886080802e-14)">TAK</text>
  <g transform="matrix(1, 0, 0, 1, 86.09159851074219, 102.246566772461)">
    <rect x="324.296" y="900" width="250.341" height="80" class="process" style=""/>
    <text x="450" y="925" class="box-text-small" style="white-space: pre;">Użyj ostatni poprawny odczyt:</text>
    <text x="450" y="945" class="box-text-small" style="white-space: pre;">T_zewn = ostatni_poprawny_odczyt</text>
    <text x="450" y="965" class="box-text-small" style="white-space: pre;">(utrzymaj obecny scenariusz)</text>
  </g>
  <path d="M 605.875 1169.83 L 605.875 1081.76 L 846.209 1081.76 L 846.209 1004.98" class="arrow" style="transform-origin: 726.041px 1125.83px;" transform="matrix(-1, 0, 0, -1, 0.00012207, 0)"/>
  <path d="M 245.349 860.02 L 174.869 860.02 L 174.869 1000.02" class="arrow-no" style="" transform="matrix(1, 0, 0, 1, 0, 5.684341886080802e-14)"/>
  <text x="198.71" y="851.941" class="label-no" style="white-space: pre; font-size: 14px;" transform="matrix(1, 0, 0, 1, 0, 5.684341886080802e-14)">NIE</text>
  <g transform="matrix(1, 0, 0, 1, -41.86809539794922, -72.11280822753906)">
    <rect x="102.637" y="1073.16" width="235" height="100" class="action"/>
    <text x="219.637" y="1098.16" class="box-text-small" style="font-size: 14px; white-space: pre;">🚨 ALARM KRYTYCZNY</text>
    <text x="219.637" y="1118.16" class="box-text-small" style="white-space: pre; font-size: 13px;">Brak odczytu &gt;</text>
    <text x="219.637" y="1135.16" class="box-text-small" style="white-space: pre; font-size: 13px;">CZAS_UTRZYMANIA_PRZY_AWARII</text>
    <text x="219.637" y="1152.16" class="box-text-small" style="white-space: pre; font-size: 13px;">"Awaria czujnika temperatury"</text>
    <text x="219.637" y="1169.16" class="box-text-small" style="white-space: pre; font-size: 13px;">Przełącz na tryb MANUAL</text>
  </g>
  <path d="M 173.101 1103 L 173.101 1947.07 L 436 1947.07" class="arrow" style="" transform="matrix(1, 0, 0, 1, 0, 5.684341886080802e-14)"/>
  <text x="788.197" y="701.635" class="label" style="white-space: pre; font-size: 14px;" transform="matrix(1, 0, 0, 1, 0, 5.684341886080802e-14)">TAK</text>
  <g transform="matrix(1, 0, 0, 1, 246.58312988281273, -24.518354415893555)">
    <rect x="450" y="840" width="300" height="80" class="process"/>
    <text x="600" y="865" class="box-text" style="white-space: pre;">Filtr uśredniania</text>
    <text x="600" y="885" class="box-text-small" style="white-space: pre;">T_zewn = średnia(ostatnie 3 próbki)</text>
    <text x="600" y="905" class="box-text-small" style="white-space: pre;">ostatni_poprawny_odczyt = T_zewn</text>
  </g>
  <path d="M 847.146 897.436 L 847.146 995.071" class="arrow" style="" transform="matrix(1, 0, 0, 1, 0, 5.684341886080802e-14)"/>
  <g transform="matrix(1, 0, 0, 1, 117.82975769042969, -35.84305191040039)">
    <rect x="606.831" y="1037.92" width="236.335" height="80" class="data" style=""/>
    <text x="727.132" y="1062.92" class="box-text" style="white-space: pre; font-size: 15px;">KROK 3:</text>
    <text x="727.132" y="1082.92" class="box-text" style="white-space: pre; font-size: 15px;">Określ wymagany scenariusz</text>
    <text x="727.132" y="1102.92" class="box-text-small" style="white-space: pre; font-size: 13px;">(Progi S0-S8 z histerezą)</text>
  </g>
  <path d="M 690.134 1009.79 L 690.134 1072.84" class="arrow" style="transform-origin: 690.134px 1041.31px;" transform="matrix(0, -0.99999654, 1.00000115, 0.0000052, -0.0035451, -0.01004444)"/>
  <g transform="matrix(1, 0, 0, 1, 3.6269760131835938, 64.71377563476568)">
    <path d="M 600 1180 L 730 1240 L 600 1300 L 470 1240 Z" class="decision"/>
    <text x="600" y="1230" class="box-text" style="white-space: pre;">KROK 4:</text>
    <text x="600" y="1250" class="box-text-small" style="white-space: pre;">Wymagany = Aktualny?</text>
    <text x="600" y="1270" class="box-text-small" style="white-space: pre;">+ stabilizacja 60s</text>
  </g>
  <path d="M 470 1301.38 L 370 1301.38 L 370 1380" class="arrow-no" style="" transform="matrix(1, 0, 0, 1, 0, 5.684341886080802e-14)"/>
  <text x="409.601" y="1288.38" class="label-no" style="white-space: pre; font-size: 14px;" transform="matrix(1, 0, 0, 1, 0, 5.684341886080802e-14)">NIE</text>
  <text x="387.601" y="1320.38" class="note" style="white-space: pre; font-size: 12px;" transform="matrix(1, 0, 0, 1, 0, 5.684341886080802e-14)">Zmiana wymagana</text>
  <path d="M 730 1307.37 L 970 1307.37 L 970 1945 L 770 1945" class="arrow-yes" style="" transform="matrix(1, 0, 0, 1, 0, 5.684341886080802e-14)"/>
  <text x="791.92" y="1293.08" class="label" style="white-space: pre; font-size: 14px;" transform="matrix(1, 0, 0, 1, 0, 5.684341886080802e-14)">TAK</text>
  <text x="759.92" y="1320.08" class="note" style="white-space: pre; font-size: 12px;" transform="matrix(1, 0, 0, 1, 0, 5.684341886080802e-14)">Kontynuuj w aktualnym</text>
  <path d="M 370 1380 L 507 1471 L 370 1562 L 233 1471 Z" class="decision" transform="matrix(1, 0, 0, 1, 0, 5.684341886080802e-14)"/>
  <text x="370" y="1420" class="box-text" style="font-size: 15px; white-space: pre;" transform="matrix(1, 0, 0, 1, 0, 5.684341886080802e-14)">KROK 5:</text>
  <text x="370" y="1444" class="box-text-small" style="font-size: 13px; white-space: pre;" transform="matrix(1, 0, 0, 1, 0, 5.684341886080802e-14)">Brak blokady RC/RN?</text>
  <text x="370" y="1461" class="box-text-small" style="font-size: 12px; white-space: pre;" transform="matrix(1, 0, 0, 1, 0, 5.684341886080802e-14)">(zmiana_układu_w_toku = FAŁSZ</text>
  <text x="370" y="1476" class="box-text-small" style="font-size: 12px; white-space: pre;" transform="matrix(1, 0, 0, 1, 0, 5.684341886080802e-14)">ORAZ rotacja_nagrzewnic_w_toku = FAŁSZ)</text>
  <path d="M 234 1471 L 194 1471 L 194 1929 L 437 1929" class="arrow-no" transform="matrix(1, 0, 0, 1, 0, 5.684341886080802e-14)"/>
  <text x="179" y="1461" class="label-no" style="white-space: pre;" transform="matrix(1, 0, 0, 1, 0, 5.684341886080802e-14)">NIE</text>
  <text x="201" y="1627" class="note" style="font-size: 12px; white-space: pre;" transform="matrix(1, 0, 0, 1, 0, 5.684341886080802e-14)">Blokada aktywna</text>
  <text x="201" y="1644" class="note" style="font-size: 11px; white-space: pre;" transform="matrix(1, 0, 0, 1, 0, 5.684341886080802e-14)">(odrocz zmianę)</text>
  <path d="M 492 1471 L 702 1471 L 702 1578" class="arrow-yes" transform="matrix(1, 0, 0, 1, 0, 5.684341886080802e-14)"/>
  <text x="516" y="1456" class="label" style="white-space: pre;" transform="matrix(1, 0, 0, 1, 0, 5.684341886080802e-14)">TAK</text>
  <rect x="550" y="1580" width="300" height="80" class="action" transform="matrix(1, 0, 0, 1, 0, 5.684341886080802e-14)"/>
  <text x="700" y="1605" class="box-text" style="white-space: pre;" transform="matrix(1, 0, 0, 1, 0, 5.684341886080802e-14)">KROK 6:</text>
  <text x="700" y="1625" class="box-text" style="white-space: pre;" transform="matrix(1, 0, 0, 1, 0, 5.684341886080802e-14)">Wykonaj zmianę scenariusza</text>
  <text x="700" y="1645" class="box-text-small" style="white-space: pre;" transform="matrix(1, 0, 0, 1, 0, 5.684341886080802e-14)">(aktywuj/dezaktywuj nagrzewnice)</text>
  <path d="M 700 1660 L 700 1915" class="arrow" transform="matrix(1, 0, 0, 1, 0, 5.684341886080802e-14)"/>
  <rect x="437" y="1915" width="327" height="60" class="process" transform="matrix(1, 0, 0, 1, 0, 5.684341886080802e-14)"/>
  <text x="605" y="1950" class="box-text" style="white-space: pre;" transform="matrix(1, 0, 0, 1, 0, 5.684341886080802e-14)">Czekaj CYKL_MONITORINGU_TEMP</text>
  <path d="M 600 1975 L 600 2010 L 1153.73 2010 L 1153.73 130 L 775.973 130" class="arrow" style="" transform="matrix(1, 0, 0, 1, 0, 5.684341886080802e-14)"/>
  <g transform="matrix(1, 0, 0, 1, 38.08460998535156, 55.49426651000982)">
    <rect x="800" y="101" width="278.975" height="417.618" fill="#f9f9f9" stroke="#999" stroke-width="1" style=""/>
    <text x="810" y="126" class="box-label" style="white-space: pre;">PARAMETRY:</text>
    <text x="910" y="144" class="box-text-small" text-anchor="start" style="font-size: 13px; white-space: pre;">• CYKL_MONITORINGU_TEMP</text>
    <text x="917" y="164" class="box-text-small" text-anchor="start" style="font-size: 13px; white-space: pre;">• FILTR_UŚREDNIANIA (3 próbki)</text>
    <text x="931" y="184" class="box-text-small" text-anchor="start" style="font-size: 13px; white-space: pre;">• CZAS_UTRZYMANIA_PRZY_AWARII</text>
    <text x="934" y="204" class="box-text-small" text-anchor="start" style="font-size: 13px; white-space: pre;">• CZAS_STABILIZACJI_SCENARIUSZA</text>
    <text x="939" y="224" class="box-text-small" text-anchor="start" style="font-size: 13px; white-space: pre;">• ODSTĘP_ZAŁĄCZENIA_NAGRZEWNIC</text>
    <text x="942" y="244" class="box-text-small" text-anchor="start" style="font-size: 13px; white-space: pre;">• ODSTĘP_WYŁĄCZENIA_NAGRZEWNIC</text>
    <text x="928" y="264" class="box-text-small" text-anchor="start" style="font-size: 13px; white-space: pre;">• TIMEOUT_ZMIANY_SCENARIUSZA</text>
    <text x="810" y="292" class="box-label" style="white-space: pre; font-size: 14px;">ZMIENNE GLOBALNE:</text>
    <text x="815" y="310" class="note" text-anchor="start" style="font-size: 11px; white-space: pre;">(współdzielone z RC/RN, ODCZYT)</text>
    <text x="883.148" y="328.994" class="box-text-small" text-anchor="start" style="font-size: 12px; white-space: pre;">• zmiana_układu_w_toku</text>
    <text x="894.056" y="345.755" class="box-text-small" text-anchor="start" style="font-size: 12px; white-space: pre;">• rotacja_nagrzewnic_w_toku</text>
    <text x="810" y="377" class="box-label" style="white-space: pre; font-size: 14px;">ZMIENNE LOKALNE:</text>
    <text x="817" y="395" class="note" text-anchor="start" style="font-size: 11px; white-space: pre;">(dla obsługi awarii)</text>
    <text x="887.668" y="411.657" class="box-text-small" text-anchor="start" style="font-size: 12px; white-space: pre;">• ostatni_poprawny_odczyt</text>
    <text x="902.101" y="429.261" class="box-text-small" text-anchor="start" style="font-size: 12px; white-space: pre;">• timestamp_ostatniego_odczytu</text>
    <text x="872.157" y="447.58" class="box-text-small" text-anchor="start" style="font-size: 12px; white-space: pre;">• alarm_czujnik_temp</text>
    <text x="810" y="482" class="box-label" style="white-space: pre; font-size: 14px;">🔒 KOORDYNACJA Z RC/RN:</text>
    <text x="820" y="502" class="note" text-anchor="start" style="font-size: 11px; white-space: pre;">• WS sprawdza obie blokady</text>
  </g>
  <rect x="50" y="2030" width="1100" height="100" fill="none" stroke="#999" stroke-width="1" stroke-dasharray="5,5" transform="matrix(1, 0, 0, 1, 0, 5.684341886080802e-14)"/>
  <text x="60" y="2055" class="box-label" style="white-space: pre;" transform="matrix(1, 0, 0, 1, 0, 5.684341886080802e-14)">LEGENDA:</text>
  <rect x="70" y="2070" width="140" height="40" class="start-end" transform="matrix(1, 0, 0, 1, 0, 5.684341886080802e-14)"/>
  <text x="140" y="2095" class="box-text-small" style="white-space: pre;" transform="matrix(1, 0, 0, 1, 0, 5.684341886080802e-14)">START / KONIEC</text>
  <rect x="230" y="2070" width="140" height="40" class="data" transform="matrix(1, 0, 0, 1, 0, 5.684341886080802e-14)"/>
  <text x="300" y="2095" class="box-text-small" style="white-space: pre;" transform="matrix(1, 0, 0, 1, 0, 5.684341886080802e-14)">Odczyt / Dane</text>
  <path d="M 450 2070 L 510 2090 L 450 2110 L 390 2090 Z" class="decision" transform="matrix(1, 0, 0, 1, 0, 5.684341886080802e-14)"/>
  <text x="450" y="2095" class="box-text-small" style="white-space: pre;" transform="matrix(1, 0, 0, 1, 0, 5.684341886080802e-14)">Decyzja</text>
  <rect x="540" y="2070" width="120" height="40" class="action" transform="matrix(1, 0, 0, 1, 0, 5.684341886080802e-14)"/>
  <text x="600" y="2095" class="box-text-small" style="white-space: pre;" transform="matrix(1, 0, 0, 1, 0, 5.684341886080802e-14)">Akcja/Alarm</text>
  <rect x="680" y="2070" width="140" height="40" class="process" transform="matrix(1, 0, 0, 1, 0, 5.684341886080802e-14)"/>
  <text x="750" y="2095" class="box-text-small" style="white-space: pre;" transform="matrix(1, 0, 0, 1, 0, 5.684341886080802e-14)">Proces</text>
  <rect x="840" y="2070" width="140" height="40" class="warning" transform="matrix(1, 0, 0, 1, 0, 5.684341886080802e-14)"/>
  <text x="910" y="2095" class="box-text-small" style="white-space: pre;" transform="matrix(1, 0, 0, 1, 0, 5.684341886080802e-14)">Blokada/Sync</text>
  <path d="M 745.97 710.258 L 849.754 710.258 L 849.754 811.737" class="arrow-yes" style="stroke-width: 2.5;" transform="matrix(1, 0, 0, 1, 0, 5.684341886080802e-14)"/>
  <path d="M 449.665 708.675 L 355.033 708.675 L 355.033 788.573" class="arrow-no" style="stroke-width: 2.5;" transform="matrix(1, 0, 0, 1, 0, 5.684341886080802e-14)"/>
</svg>