<?xml version="1.0" encoding="utf-8"?>
<svg xmlns="http://www.w3.org/2000/svg" viewBox="0 0 800 600" width="800px" height="600px">
  <defs>
    <marker id="arrowhead-blue" markerWidth="10" markerHeight="10" refX="9" refY="3" orient="auto">
      <polygon points="0 0, 10 3, 0 6" fill="#0066cc"/>
    </marker>
    <marker id="arrowhead-gray" markerWidth="10" markerHeight="10" refX="9" refY="3" orient="auto">
      <polygon points="0 0, 10 3, 0 6" fill="#6c757d"/>
    </marker>
    <style>
      .title { font-family: Arial, sans-serif; font-size: 20px; font-weight: bold; fill: #1a1a1a; }
      .box-title { font-family: Arial, sans-serif; font-size: 16px; font-weight: bold; fill: #ffffff; }
      .box-subtitle { font-family: Arial, sans-serif; font-size: 13px; fill: #ffffff; }
      .box-text { font-family: Arial, sans-serif; font-size: 12px; fill: #333; }
      .label { font-family: Arial, sans-serif; font-size: 11px; fill: #555; font-style: italic; }
      
      .box-ws { fill: #e7f3ff; stroke: #0066cc; stroke-width: 3; }
      .box-ws-header { fill: #0066cc; }
      .box-rc { fill: #fff9e6; stroke: #ffc107; stroke-width: 2; }
      .box-rc-header { fill: #ffc107; }
      .box-rn { fill: #d4edda; stroke: #28a745; stroke-width: 2; }
      .box-rn-header { fill: #28a745; }
      
      .arrow-main { stroke: #0066cc; stroke-width: 3; fill: none; marker-end: url(#arrowhead-blue); }
      .arrow-coord { stroke: #6c757d; stroke-width: 2; fill: none; marker-end: url(#arrowhead-gray); stroke-dasharray: 5,3; }
    </style>
  </defs>
  <rect width="800" height="600" fill="#ffffff" transform="matrix(0.9999999999999999, 0, 0, 0.9999999999999999, 0, -7.105427357601002e-15)"/>
  <text class="title" x="400" y="35" text-anchor="middle" style="white-space: pre;" transform="matrix(0.9999999999999999, 0, 0, 0.9999999999999999, 0, -7.105427357601002e-15)">Hierarchia i Koordynacja Algorytmów</text>
  <rect class="box-ws" x="200" y="70" width="400" height="140" rx="5" transform="matrix(0.9999999999999999, 0, 0, 0.9999999999999999, 0, -7.105427357601002e-15)"/>
  <rect class="box-ws-header" x="200" y="70" width="400" height="35" rx="5" transform="matrix(0.9999999999999999, 0, 0, 0.9999999999999999, 0, -7.105427357601002e-15)"/>
  <rect class="box-ws-header" x="200" y="88" width="400" height="17" transform="matrix(0.9999999999999999, 0, 0, 0.9999999999999999, 0, -7.105427357601002e-15)"/>
  <text class="box-title" x="400" y="93" text-anchor="middle" style="white-space: pre;" transform="matrix(0.9999999999999999, 0, 0, 0.9999999999999999, 0, -7.105427357601002e-15)">Algorytm WS</text>
  <text class="box-text" x="220" y="130" font-weight="bold" style="white-space: pre;" transform="matrix(0.9999999999999999, 0, 0, 0.9999999999999999, 0, -7.105427357601002e-15)">Wybór Scenariusza (S0-S8)</text>
  <text class="box-text" x="240" y="150" font-size="11" style="white-space: pre;" transform="matrix(0.9999999999999999, 0, 0, 0.9999999999999999, 0, -7.105427357601002e-15)">• Monitoruje temperaturę zewnętrzną</text>
  <text class="box-text" x="240" y="167" font-size="11" style="white-space: pre;" transform="matrix(0.9999999999999999, 0, 0, 0.9999999999999999, 0, -7.105427357601002e-15)">• Decyduje: ILE nagrzewnic potrzeba</text>
  <text class="box-text" x="240.934" y="183.289" font-size="11" style="white-space: pre; font-size: 12px;" transform="matrix(0.9999999999999999, 0, 0, 0.9999999999999999, 0, -7.105427357601002e-15)">• Zarządza przejściami między scenariuszami</text>
  <path class="arrow-main" d="M 400 210 L 400 260" transform="matrix(0.9999999999999999, 0, 0, 0.9999999999999999, 0, -7.105427357601002e-15)"/>
  <text class="label" x="415" y="240" font-weight="bold" style="white-space: pre;" transform="matrix(0.9999999999999999, 0, 0, 0.9999999999999999, 0, -7.105427357601002e-15)">hierarchia</text>
  <line x1="400" y1="260" x2="280" y2="300" stroke="#0066cc" stroke-width="3" transform="matrix(0.9999999999999999, 0, 0, 0.9999999999999999, 0, -7.105427357601002e-15)"/>
  <line x1="400" y1="260" x2="520" y2="300" stroke="#0066cc" stroke-width="3" transform="matrix(0.9999999999999999, 0, 0, 0.9999999999999999, 0, -7.105427357601002e-15)"/>
  <rect class="box-rc-header" x="66" y="318" width="300" height="17" transform="matrix(0.9999999999999999, 0, 0, 0.9999999999999999, 0, -7.105427357601002e-15)"/>
  <g transform="matrix(0.9999999999999999, 0, 0, 0.9999999999999999, -15, -7.105427357601002e-15)">
    <rect class="box-rc" x="80" y="300" width="300" height="180" rx="5"/>
    <rect class="box-rc-header" x="80" y="300" width="300" height="35" rx="5"/>
    <text class="box-title" x="230" y="323" text-anchor="middle" style="white-space: pre;">Algorytm RC</text>
    <text class="box-text" x="100" y="360" font-weight="bold" style="white-space: pre;">Rotacja Układów (C1 ↔ C2)</text>
    <text class="box-text" x="120" y="380" font-size="11" style="white-space: pre;">• Okres: dni/tygodnie/miesiące</text>
    <text class="box-text" x="120" y="397" font-size="11" style="white-space: pre;">• Decyduje: KTÓRY CIĄG pracuje</text>
    <text class="box-text" x="120" y="414" font-size="11" style="white-space: pre;">• Układ Podstawowy: C1 (W1)</text>
    <text class="box-text" x="120" y="431" font-size="11" style="white-space: pre;">• Układ Ograniczony: C2 (W2)</text>
    <text class="box-text" x="120" y="448" font-size="11" style="white-space: pre;">• Dotyczy: S1-S4</text>
    <text class="box-text" x="120" y="465" font-size="11" style="white-space: pre;">• Wyrównanie eksploatacji ciągów</text>
  </g>
  <rect class="box-rn" x="435" y="300" width="300" height="180" rx="5" transform="matrix(0.9999999999999999, 0, 0, 0.9999999999999999, 0, -7.105427357601002e-15)"/>
  <rect class="box-rn-header" x="435" y="300" width="300" height="35" rx="5" transform="matrix(0.9999999999999999, 0, 0, 0.9999999999999999, 0, -7.105427357601002e-15)"/>
  <rect class="box-rn-header" x="435" y="318" width="300" height="17" transform="matrix(0.9999999999999999, 0, 0, 0.9999999999999999, 0, -7.105427357601002e-15)"/>
  <text class="box-title" x="585" y="323" text-anchor="middle" style="white-space: pre; font-size: 16px;" transform="matrix(0.9999999999999999, 0, 0, 0.9999999999999999, 0, -7.105427357601002e-15)">Algorytm RN</text>
  <text class="box-text" x="455" y="360" font-weight="bold" style="white-space: pre; font-size: 12px;" transform="matrix(0.9999999999999999, 0, 0, 0.9999999999999999, 0, -7.105427357601002e-15)">Rotacja Nagrzewnic (N1-N8)</text>
  <text class="box-text" x="475" y="380" font-size="11" style="white-space: pre; font-size: 12px;" transform="matrix(0.9999999999999999, 0, 0, 0.9999999999999999, 0, -7.105427357601002e-15)">• Okres: godziny/dni/tygodnie</text>
  <text class="box-text" x="475" y="397" font-size="11" style="white-space: pre; font-size: 12px;" transform="matrix(0.9999999999999999, 0, 0, 0.9999999999999999, 0, -7.105427357601002e-15)">• Decyduje: KTÓRE nagrzewnice w ciągu</text>
  <text class="box-text" x="475" y="414" font-size="11" style="white-space: pre; font-size: 12px;" transform="matrix(0.9999999999999999, 0, 0, 0.9999999999999999, 0, -7.105427357601002e-15)">• Wymiana: pracująca ↔ rezerwowa</text>
  <text class="box-text" x="475" y="431" font-size="11" style="white-space: pre; font-size: 12px;" transform="matrix(0.9999999999999999, 0, 0, 0.9999999999999999, 0, -7.105427357601002e-15)">• W obrębie jednego ciągu</text>
  <text class="box-text" x="475" y="448" font-size="11" style="white-space: pre; font-size: 12px;" transform="matrix(0.9999999999999999, 0, 0, 0.9999999999999999, 0, -7.105427357601002e-15)">• Dotyczy: S1-S8</text>
  <text class="box-text" x="475" y="465" font-size="11" style="white-space: pre; font-size: 12px;" transform="matrix(0.9999999999999999, 0, 0, 0.9999999999999999, 0, -7.105427357601002e-15)">• Wyrównanie eksploatacji nagrzewnic</text>
  <path class="arrow-coord" d="M 366.251 390 L 431.935 390" style="" transform="matrix(0.9999999999999999, 0, 0, 0.9999999999999999, 0, -7.105427357601002e-15)"/>
  <text class="label" x="400.877" y="414.088" text-anchor="middle" style="white-space: pre; font-size: 11px;" transform="matrix(0.9999999999999999, 0, 0, 0.9999999999999999, 0, -7.105427357601002e-15)">koordynacja</text>
  <path class="arrow-coord" d="M 431.061 430 L 366.669 430" style="" transform="matrix(0.9999999999999999, 0, 0, 0.9999999999999999, 0, -7.105427357601002e-15)"/>
  <rect x="50" y="510" width="700" height="70" fill="#f8f9fa" stroke="#dee2e6" stroke-width="1" rx="3" transform="matrix(0.9999999999999999, 0, 0, 0.9999999999999999, 0, -7.105427357601002e-15)"/>
  <text class="box-text" x="70" y="530" font-weight="bold" style="white-space: pre;" transform="matrix(0.9999999999999999, 0, 0, 0.9999999999999999, 0, -7.105427357601002e-15)">Współpraca algorytmów:</text>
  <text class="box-text" x="90" y="550" font-size="11" style="white-space: pre;" transform="matrix(0.9999999999999999, 0, 0, 0.9999999999999999, 0, -7.105427357601002e-15)">• <tspan font-weight="bold">WS</tspan> określa scenariusz → <tspan font-weight="bold">RC</tspan> wybiera ciąg → <tspan font-weight="bold">RN</tspan> wybiera nagrzewnice</text>
  <text class="box-text" x="90" y="567" font-size="11" style="white-space: pre;" transform="matrix(0.9999999999999999, 0, 0, 0.9999999999999999, 0, -7.105427357601002e-15)">• <tspan font-weight="bold">Blokady:</tspan> RC i RN nie działają jednocześnie (zmienne: zmiana_układu_w_toku, rotacja_nagrzewnic_w_toku)</text>
  <text class="label" x="400" y="595" text-anchor="middle" style="white-space: pre;" transform="matrix(0.9999999999999999, 0, 0, 0.9999999999999999, 0, -7.105427357601002e-15)">Wszystkie algorytmy działają w trybie AUTO</text>
  <text class="box-text" x="241.14" y="200.773" font-size="11" style="white-space: pre; font-size: 12px; stroke-width: 1;" transform="matrix(0.9999999999999999, 0, 0, 0.9999999999999999, 0, -7.105427357601002e-15)">• Zmiana scenariusza jak RN lub RC nie są w trakcie zmiany</text>
</svg>