<?xml version="1.0" encoding="UTF-8"?>
<svg xmlns="http://www.w3.org/2000/svg" viewBox="0 0 1600 1100" width="1600" height="1100">
  <defs>
    <style>
      .heater-off { fill: #cccccc; stroke: #666666; stroke-width: 2; }
      .heater-on { fill: #ff6b6b; stroke: #c92a2a; stroke-width: 2; }
      .damper-closed { fill: #999999; stroke: #333333; stroke-width: 2; }
      .damper-open { fill: #51cf66; stroke: #2f9e44; stroke-width: 2; }
      .fan-off { fill: #cccccc; stroke: #666666; stroke-width: 2; }
      .fan-on { fill: #339af0; stroke: #1864ab; stroke-width: 2; }
      .valve { fill: #ffd43b; stroke: #f08c00; stroke-width: 2; }
      .pipe { fill: none; stroke: #495057; stroke-width: 3; }
      .air-flow { fill: none; stroke: #74c0fc; stroke-width: 2; stroke-dasharray: 5,5; }
      .water-pipe { fill: none; stroke: #1971c2; stroke-width: 3; }
      .text-label { font-family: Arial, sans-serif; font-size: 14px; fill: #212529; }
      .text-label-small { font-family: Arial, sans-serif; font-size: 11px; fill: #495057; }
      .text-title { font-family: Arial, sans-serif; font-size: 20px; font-weight: bold; fill: #212529; }
      .text-status { font-family: Arial, sans-serif; font-size: 16px; font-weight: bold; }
      .status-off { fill: #f03e3e; }
      .status-on { fill: #37b24d; }
      .background { fill: #f8f9fa; }
      .glow { filter: url(#glow-filter); }
    </style>
    
    <!-- Glow effect for active elements -->
    <filter id="glow-filter" x="-50%" y="-50%" width="200%" height="200%">
      <feGaussianBlur stdDeviation="3" result="coloredBlur"/>
      <feMerge>
        <feMergeNode in="coloredBlur"/>
        <feMergeNode in="SourceGraphic"/>
      </feMerge>
    </filter>
    
    <!-- Marker for arrows -->
    <marker id="arrowhead" markerWidth="10" markerHeight="10" refX="9" refY="3" orient="auto">
      <polygon points="0 0, 10 3, 0 6" fill="#74c0fc" />
    </marker>
    <marker id="arrowhead-water" markerWidth="10" markerHeight="10" refX="9" refY="3" orient="auto">
      <polygon points="0 0, 10 3, 0 6" fill="#1971c2" />
    </marker>
  </defs>
  
  <!-- Background -->
  <rect class="background" width="1600" height="1100"/>
  
  <!-- Title and Status -->
  <text class="text-title" x="800" y="35" text-anchor="middle">System Sterowania Nagrzewnicami - BOGDANKA Szyb 2</text>
  <text class="text-title" x="800" y="60" text-anchor="middle">Stan S5 - Temperatura zewnętrzna: -15°C &lt; t ≤ -11°C</text>
  <text class="text-status status-on" x="800" y="85" text-anchor="middle">CIĄG 1: N1-N4 🟢 | CIĄG 2: N5 🟢</text>
  
  <!-- Legend -->
  <rect x="1250" y="900" width="300" height="190" fill="white" stroke="#495057" stroke-width="2" rx="5"/>
  <text class="text-label" x="1260" y="920" font-weight="bold">Legenda:</text>
  <rect class="heater-on" x="1260" y="930" width="30" height="20" rx="3"/>
  <text class="text-label-small" x="1295" y="945">Nagrzewnica włączona</text>
  <rect class="heater-off" x="1260" y="955" width="30" height="20" rx="3"/>
  <text class="text-label-small" x="1295" y="970">Nagrzewnica wyłączona</text>
  <rect class="damper-open" x="1260" y="980" width="30" height="20" rx="3"/>
  <text class="text-label-small" x="1295" y="995">Przepustnica otwarta</text>
  <rect class="damper-closed" x="1260" y="1005" width="30" height="20" rx="3"/>
  <text class="text-label-small" x="1295" y="1020">Przepustnica zamknięta</text>
  <circle class="fan-on" cx="1275" cy="1043" r="15"/>
  <text class="text-label-small" x="1295" y="1050">Wentylator włączony</text>
  <circle class="fan-off" cx="1275" cy="1073" r="15"/>
  <text class="text-label-small" x="1295" y="1080">Wentylator wyłączony</text>
  
  
  <!-- CIĄG 1: W1 → N1 → N2 → N3 → N4 - AKTYWNY -->
  <text class="text-label status-on" x="100" y="270" font-weight="bold" font-size="16">CIĄG 1 - AKTYWNY 🟢</text>
  
  <!-- Air Flow Line - Ciąg 1 (active) -->
  <line class="pipe" x1="100" y1="400" x2="1450" y2="400" stroke-width="4"/>
  <text class="text-label-small" x="1300" y="390" font-weight="bold" text-anchor="end">Kanał powietrza</text>
  
  <!-- Air flow arrows - Ciąg 1 -->
  <line class="air-flow" x1="250" y1="400" x2="350" y2="400" marker-end="url(#arrowhead)" stroke-width="3"/>
  <line class="air-flow" x1="510" y1="400" x2="550" y2="400" marker-end="url(#arrowhead)" stroke-width="3"/>
  <line class="air-flow" x1="710" y1="400" x2="750" y2="400" marker-end="url(#arrowhead)" stroke-width="3"/>
  <line class="air-flow" x1="910" y1="400" x2="950" y2="400" marker-end="url(#arrowhead)" stroke-width="3"/>
  <line class="air-flow" x1="1110" y1="400" x2="1200" y2="400" marker-end="url(#arrowhead)" stroke-width="3"/>
  
  <!-- W1 Fan (left side) - ACTIVE -->
  <g id="fan-w1">
    <circle class="fan-on glow" cx="200" cy="400" r="40"/>
    <text class="text-label" x="200" y="405" text-anchor="middle" fill="#fff" font-weight="bold">W1</text>
    <text class="text-label-small" x="200" y="422" text-anchor="middle" fill="#fff" font-weight="bold">ON</text>
    <text class="text-label" x="200" y="460" text-anchor="middle" font-weight="bold">Wentylator W1</text>
    <circle cx="200" cy="400" r="30" fill="none" stroke="white" stroke-width="2" stroke-dasharray="10,5" opacity="0.5"/>
  </g>
  
  <!-- N1 - ACTIVE -->
  <g id="heater-n1">
    <text class="text-label" x="430" y="365" text-anchor="middle" font-weight="bold">N1</text>
    <rect class="damper-open glow" x="370" y="370" width="20" height="60" rx="3"/>
    <text class="text-label-small" x="365" y="455" transform="rotate(-90 365 455)">Wlot</text>
    <rect class="heater-on glow" x="400" y="370" width="60" height="60" rx="5"/>
    <text class="text-label-small" x="430" y="400" text-anchor="middle" fill="#fff" font-weight="bold">ON</text>
    <text class="text-label-small" x="430" y="415" text-anchor="middle" fill="#fff">50°C</text>
    <rect class="damper-open glow" x="470" y="370" width="20" height="60" rx="3"/>
    <text class="text-label-small" x="465" y="455" transform="rotate(-90 465 455)">Wylot</text>
    <circle class="valve glow" cx="430" cy="310" r="12"/>
    <text class="text-label-small" x="430" y="290" font-weight="bold" text-anchor="middle">PID</text>
  </g>
  
  <!-- N2 - ACTIVE -->
  <g id="heater-n2">
    <text class="text-label" x="630" y="365" text-anchor="middle" font-weight="bold">N2</text>
    <rect class="damper-open glow" x="570" y="370" width="20" height="60" rx="3"/>
    <text class="text-label-small" x="565" y="455" transform="rotate(-90 565 455)">Wlot</text>
    <rect class="heater-on glow" x="600" y="370" width="60" height="60" rx="5"/>
    <text class="text-label-small" x="630" y="400" text-anchor="middle" fill="#fff" font-weight="bold">ON</text>
    <text class="text-label-small" x="630" y="415" text-anchor="middle" fill="#fff">50°C</text>
    <rect class="damper-open glow" x="670" y="370" width="20" height="60" rx="3"/>
    <text class="text-label-small" x="665" y="455" transform="rotate(-90 665 455)">Wylot</text>
    <circle class="valve glow" cx="630" cy="310" r="12"/>
    <text class="text-label-small" x="630" y="290" font-weight="bold" text-anchor="middle">PID</text>
  </g>
  
  <!-- N3 - ACTIVE -->
  <g id="heater-n3">
    <text class="text-label" x="830" y="365" text-anchor="middle" font-weight="bold">N3</text>
    <rect class="damper-open glow" x="770" y="370" width="20" height="60" rx="3"/>
    <text class="text-label-small" x="765" y="455" transform="rotate(-90 765 455)">Wlot</text>
    <rect class="heater-on glow" x="800" y="370" width="60" height="60" rx="5"/>
    <text class="text-label-small" x="830" y="400" text-anchor="middle" fill="#fff" font-weight="bold">ON</text>
    <text class="text-label-small" x="830" y="415" text-anchor="middle" fill="#fff">50°C</text>
    <rect class="damper-open glow" x="870" y="370" width="20" height="60" rx="3"/>
    <text class="text-label-small" x="865" y="455" transform="rotate(-90 865 455)">Wylot</text>
    <circle class="valve glow" cx="830" cy="310" r="12"/>
    <text class="text-label-small" x="830" y="290" font-weight="bold" text-anchor="middle">PID</text>
  </g>
  
  <!-- N4 - ACTIVE -->
  <g id="heater-n4">
    <text class="text-label" x="1030" y="365" text-anchor="middle" font-weight="bold">N4</text>
    <rect class="damper-open glow" x="970" y="370" width="20" height="60" rx="3"/>
    <text class="text-label-small" x="965" y="455" transform="rotate(-90 965 455)">Wlot</text>
    <rect class="heater-on glow" x="1000" y="370" width="60" height="60" rx="5"/>
    <text class="text-label-small" x="1030" y="400" text-anchor="middle" fill="#fff" font-weight="bold">ON</text>
    <text class="text-label-small" x="1030" y="415" text-anchor="middle" fill="#fff">50°C</text>
    <rect class="damper-open glow" x="1070" y="370" width="20" height="60" rx="3"/>
    <text class="text-label-small" x="1065" y="455" transform="rotate(-90 1065 455)">Wylot</text>
    <circle class="valve glow" cx="1030" cy="310" r="12"/>
    <text class="text-label-small" x="1030" y="290" font-weight="bold" text-anchor="middle">PID</text>
  </g>
  
  <!-- CIĄG 2: W2 → N5 → N6 → N7 → N8 - CZĘŚCIOWO AKTYWNY -->
  <text class="text-label status-on" x="100" y="570" font-weight="bold" font-size="16">CIĄG 2 - AKTYWNY 🟢</text>
  
  <!-- Air Flow Line - Ciąg 2 (active) -->
  <line class="pipe" x1="100" y1="700" x2="1450" y2="700" stroke-width="4"/>
  <text class="text-label-small" x="1300" y="690" font-weight="bold" text-anchor="end">Kanał powietrza</text>
  
  <!-- Air flow arrows - Ciąg 2 -->
  <line class="air-flow" x1="250" y1="700" x2="350" y2="700" marker-end="url(#arrowhead)" stroke-width="3"/>
  <line class="air-flow" x1="510" y1="700" x2="550" y2="700" marker-end="url(#arrowhead)" stroke-width="3"/>
  
  <!-- W2 Fan (left side) - ACTIVE -->
  <g id="fan-w2">
    <circle class="fan-on glow" cx="200" cy="700" r="40"/>
    <text class="text-label" x="200" y="705" text-anchor="middle" fill="#fff" font-weight="bold">W2</text>
    <text class="text-label-small" x="200" y="722" text-anchor="middle" fill="#fff" font-weight="bold">ON</text>
    <text class="text-label" x="200" y="760" text-anchor="middle" font-weight="bold">Wentylator W2</text>
    <circle cx="200" cy="700" r="30" fill="none" stroke="white" stroke-width="2" stroke-dasharray="10,5" opacity="0.5"/>
  </g>
  
  <!-- N5 - ACTIVE -->
  <g id="heater-n5">
    <text class="text-label" x="430" y="665" text-anchor="middle" font-weight="bold">N5</text>
    <rect class="damper-open glow" x="370" y="670" width="20" height="60" rx="3"/>
    <text class="text-label-small" x="365" y="755" transform="rotate(-90 365 755)">Wlot</text>
    <rect class="heater-on glow" x="400" y="670" width="60" height="60" rx="5"/>
    <text class="text-label-small" x="430" y="700" text-anchor="middle" fill="#fff" font-weight="bold">ON</text>
    <text class="text-label-small" x="430" y="715" text-anchor="middle" fill="#fff">50°C</text>
    <rect class="damper-open glow" x="470" y="670" width="20" height="60" rx="3"/>
    <text class="text-label-small" x="465" y="755" transform="rotate(-90 465 755)">Wylot</text>
    <circle class="valve glow" cx="430" cy="610" r="12"/>
    <text class="text-label-small" x="430" y="590" font-weight="bold" text-anchor="middle">PID</text>
  </g>
  
  <!-- N6 - INACTIVE -->
  <g id="heater-n6">
    <text class="text-label" x="630" y="665" text-anchor="middle" font-weight="bold">N6</text>
    <rect class="damper-closed" x="570" y="670" width="20" height="60" rx="3"/>
    <text class="text-label-small" x="565" y="755" transform="rotate(-90 565 755)">Wlot</text>
    <rect class="heater-off" x="600" y="670" width="60" height="60" rx="5"/>
    <text class="text-label-small" x="630" y="705" text-anchor="middle" fill="#666">OFF</text>
    <rect class="damper-closed" x="670" y="670" width="20" height="60" rx="3"/>
    <text class="text-label-small" x="665" y="755" transform="rotate(-90 665 755)">Wylot</text>
    <circle class="valve" cx="630" cy="610" r="12"/>
    <text class="text-label-small" x="645" y="615">0%</text>
  </g>
  
  <!-- N7 - INACTIVE -->
  <g id="heater-n7">
    <text class="text-label" x="830" y="665" text-anchor="middle" font-weight="bold">N7</text>
    <rect class="damper-closed" x="770" y="670" width="20" height="60" rx="3"/>
    <text class="text-label-small" x="765" y="755" transform="rotate(-90 765 755)">Wlot</text>
    <rect class="heater-off" x="800" y="670" width="60" height="60" rx="5"/>
    <text class="text-label-small" x="830" y="705" text-anchor="middle" fill="#666">OFF</text>
    <rect class="damper-closed" x="870" y="670" width="20" height="60" rx="3"/>
    <text class="text-label-small" x="865" y="755" transform="rotate(-90 865 755)">Wylot</text>
    <circle class="valve" cx="830" cy="610" r="12"/>
    <text class="text-label-small" x="845" y="615">0%</text>
  </g>
  
  <!-- N8 - INACTIVE -->
  <g id="heater-n8">
    <text class="text-label" x="1030" y="665" text-anchor="middle" font-weight="bold">N8</text>
    <rect class="damper-closed" x="970" y="670" width="20" height="60" rx="3"/>
    <text class="text-label-small" x="965" y="755" transform="rotate(-90 965 755)">Wlot</text>
    <rect class="heater-off" x="1000" y="670" width="60" height="60" rx="5"/>
    <text class="text-label-small" x="1030" y="705" text-anchor="middle" fill="#666">OFF</text>
    <rect class="damper-closed" x="1070" y="670" width="20" height="60" rx="3"/>
    <text class="text-label-small" x="1065" y="755" transform="rotate(-90 1065 755)">Wylot</text>
    <circle class="valve" cx="1030" cy="610" r="12"/>
    <text class="text-label-small" x="1045" y="615">0%</text>
  </g>
  
  <!-- Water Supply Lines - Ciąg 1 (active) -->
  <line class="water-pipe" x1="250" y1="310" x2="1100" y2="310"/>
  <text class="text-label-small" x="260" y="300" font-weight="bold">Zasilanie wodą</text>
  <!-- Water flow arrows for Ciąg 1 -->
  <line class="water-pipe" x1="430" y1="310" x2="430" y2="330" marker-end="url(#arrowhead-water)"/>
  <line class="water-pipe" x1="630" y1="310" x2="630" y2="330" marker-end="url(#arrowhead-water)"/>
  <line class="water-pipe" x1="830" y1="310" x2="830" y2="330" marker-end="url(#arrowhead-water)"/>
  <line class="water-pipe" x1="1030" y1="310" x2="1030" y2="330" marker-end="url(#arrowhead-water)"/>
  
  <!-- Water Supply Lines - Ciąg 2 (partially active) -->
  <line class="water-pipe" x1="250" y1="610" x2="1100" y2="610"/>
  <text class="text-label-small" x="260" y="600" font-weight="bold">Zasilanie wodą</text>
  <!-- Water flow arrow for N5 only -->
  <line class="water-pipe" x1="430" y1="610" x2="430" y2="630" marker-end="url(#arrowhead-water)"/>
  
  <!-- System Status Box -->
  <rect x="50" y="950" width="700" height="140" fill="white" stroke="#495057" stroke-width="2" rx="5"/>
  <text class="text-label" x="60" y="970" font-weight="bold" font-size="14">Status systemu:</text>
  <text class="text-label-small" x="70" y="990">• Temp. zewn.: -15°C &lt; t ≤ -11°C | Stan: S5 | Temp. docelowa: 50°C</text>
  <text class="text-label-small" x="70" y="1008">• CIĄG 1 (W1 → N1-N4): AKTYWNY 🟢</text>
  <text class="text-label-small" x="70" y="1026">• CIĄG 2 (W2 → N5): AKTYWNY 🟢</text>
  <text class="text-label-small" x="70" y="1044">• Temp. wyłączenia dodatkowej nagrzewnicy: t ≥ -10°C (histereza 1°C)</text>
  
</svg>

