<?xml version="1.0" encoding="UTF-8"?>
<svg xmlns="http://www.w3.org/2000/svg" viewBox="0 0 1400 1000" width="1400" height="1000">
  <defs>
    <style>
      .heater-off { fill: #cccccc; stroke: #666666; stroke-width: 2; }
      .heater-on { fill: #ff6b6b; stroke: #c92a2a; stroke-width: 2; }
      .damper-closed { fill: #999999; stroke: #333333; stroke-width: 2; }
      .damper-open { fill: #51cf66; stroke: #2f9e44; stroke-width: 2; }
      .fan-off { fill: #cccccc; stroke: #666666; stroke-width: 2; }
      .fan-on { fill: #339af0; stroke: #1864ab; stroke-width: 2; }
      .valve { fill: #ffd43b; stroke: #f08c00; stroke-width: 2; }
      .pipe { fill: none; stroke: #495057; stroke-width: 3; }
      .air-flow { fill: none; stroke: #74c0fc; stroke-width: 2; stroke-dasharray: 5,5; }
      .water-pipe { fill: none; stroke: #1971c2; stroke-width: 3; }
      .text-label { font-family: Arial, sans-serif; font-size: 14px; fill: #212529; }
      .text-label-small { font-family: Arial, sans-serif; font-size: 11px; fill: #495057; }
      .text-title { font-family: Arial, sans-serif; font-size: 20px; font-weight: bold; fill: #212529; }
      .text-status { font-family: Arial, sans-serif; font-size: 16px; font-weight: bold; }
      .status-off { fill: #f03e3e; }
      .status-on { fill: #37b24d; }
      .background { fill: #f8f9fa; }
    </style>
    
    <!-- Marker for arrows -->
    <marker id="arrowhead" markerWidth="10" markerHeight="10" refX="9" refY="3" orient="auto">
      <polygon points="0 0, 10 3, 0 6" fill="#74c0fc" />
    </marker>
    <marker id="arrowhead-water" markerWidth="10" markerHeight="10" refX="9" refY="3" orient="auto">
      <polygon points="0 0, 10 3, 0 6" fill="#1971c2" />
    </marker>
  </defs>
  
  <!-- Background -->
  <rect class="background" width="1400" height="1000"/>
  
  <!-- Title and Status -->
  <text class="text-title" x="700" y="35" text-anchor="middle">System Sterowania Nagrzewnicami - BOGDANKA Szyb 2</text>
  <text class="text-title" x="700" y="60" text-anchor="middle">Stan S0 - Temperatura zewnętrzna ≥ 3°C</text>
  <text class="text-status status-off" x="700" y="85" text-anchor="middle">WSZYSTKIE URZĄDZENIA WYŁĄCZONE 🔴</text>
  
  <!-- Legend -->
  <rect x="50" y="100" width="300" height="120" fill="white" stroke="#495057" stroke-width="2" rx="5"/>
  <text class="text-label" x="60" y="120" font-weight="bold">Legenda:</text>
  <rect class="heater-off" x="60" y="130" width="30" height="20" rx="3"/>
  <text class="text-label-small" x="95" y="145">Nagrzewnica wyłączona</text>
  <rect class="damper-closed" x="60" y="155" width="30" height="20" rx="3"/>
  <text class="text-label-small" x="95" y="170">Przepustnica zamknięta</text>
  <circle class="fan-off" cx="75" cy="185" r="15"/>
  <text class="text-label-small" x="95" y="192">Wentylator wyłączony</text>
  
  <!-- Temperature Info -->
  <rect x="1050" y="100" width="300" height="100" fill="white" stroke="#495057" stroke-width="2" rx="5"/>
  <text class="text-label" x="1060" y="120" font-weight="bold">Parametry:</text>
  <text class="text-label-small" x="1060" y="140">Temperatura zewnętrzna: ≥ 3°C</text>
  <text class="text-label-small" x="1060" y="160">Nagrzewnice aktywne: BRAK</text>
  <text class="text-label-small" x="1060" y="180">Wentylatory aktywne: BRAK</text>
  
  <!-- Main Air Flow (inactive) -->
  <line class="pipe" x1="100" y1="500" x2="1300" y2="500" stroke-dasharray="10,5" opacity="0.3"/>
  <text class="text-label-small" x="100" y="490" fill="#999999">Kanał powietrza (brak przepływu)</text>
  
  <!-- Water Supply Line (inactive) -->
  <line class="water-pipe" x1="700" y1="850" x2="700" y2="300" stroke-dasharray="5,5" opacity="0.3"/>
  <text class="text-label-small" x="710" y="850" fill="#999999">Zasilanie wodą (zamknięte)</text>
  
  <!-- Heaters N1-N4 (Top Row) -->
  <!-- N1 -->
  <g id="heater-n1">
    <text class="text-label" x="180" y="260" text-anchor="middle" font-weight="bold">N1</text>
    <!-- Inlet Damper -->
    <rect class="damper-closed" x="150" y="470" width="20" height="60" rx="3"/>
    <text class="text-label-small" x="145" y="555" transform="rotate(-90 145 555)">Wlot</text>
    <!-- Heater -->
    <rect class="heater-off" x="150" y="400" width="60" height="60" rx="5"/>
    <text class="text-label-small" x="180" y="435" text-anchor="middle" fill="#666">OFF</text>
    <!-- Outlet Damper -->
    <rect class="damper-closed" x="150" y="330" width="20" height="60" rx="3"/>
    <text class="text-label-small" x="145" y="385" transform="rotate(-90 145 385)">Wylot</text>
    <!-- Valve -->
    <circle class="valve" cx="180" cy="300" r="12"/>
    <text class="text-label-small" x="195" y="305">0%</text>
  </g>
  
  <!-- N2 -->
  <g id="heater-n2">
    <text class="text-label" x="320" y="260" text-anchor="middle" font-weight="bold">N2</text>
    <rect class="damper-closed" x="290" y="470" width="20" height="60" rx="3"/>
    <text class="text-label-small" x="285" y="555" transform="rotate(-90 285 555)">Wlot</text>
    <rect class="heater-off" x="290" y="400" width="60" height="60" rx="5"/>
    <text class="text-label-small" x="320" y="435" text-anchor="middle" fill="#666">OFF</text>
    <rect class="damper-closed" x="290" y="330" width="20" height="60" rx="3"/>
    <text class="text-label-small" x="285" y="385" transform="rotate(-90 285 385)">Wylot</text>
    <circle class="valve" cx="320" cy="300" r="12"/>
    <text class="text-label-small" x="335" y="305">0%</text>
  </g>
  
  <!-- N3 -->
  <g id="heater-n3">
    <text class="text-label" x="460" y="260" text-anchor="middle" font-weight="bold">N3</text>
    <rect class="damper-closed" x="430" y="470" width="20" height="60" rx="3"/>
    <text class="text-label-small" x="425" y="555" transform="rotate(-90 425 555)">Wlot</text>
    <rect class="heater-off" x="430" y="400" width="60" height="60" rx="5"/>
    <text class="text-label-small" x="460" y="435" text-anchor="middle" fill="#666">OFF</text>
    <rect class="damper-closed" x="430" y="330" width="20" height="60" rx="3"/>
    <text class="text-label-small" x="425" y="385" transform="rotate(-90 425 385)">Wylot</text>
    <circle class="valve" cx="460" cy="300" r="12"/>
    <text class="text-label-small" x="475" y="305">0%</text>
  </g>
  
  <!-- N4 -->
  <g id="heater-n4">
    <text class="text-label" x="600" y="260" text-anchor="middle" font-weight="bold">N4</text>
    <rect class="damper-closed" x="570" y="470" width="20" height="60" rx="3"/>
    <text class="text-label-small" x="565" y="555" transform="rotate(-90 565 555)">Wlot</text>
    <rect class="heater-off" x="570" y="400" width="60" height="60" rx="5"/>
    <text class="text-label-small" x="600" y="435" text-anchor="middle" fill="#666">OFF</text>
    <rect class="damper-closed" x="570" y="330" width="20" height="60" rx="3"/>
    <text class="text-label-small" x="565" y="385" transform="rotate(-90 565 385)">Wylot</text>
    <circle class="valve" cx="600" cy="300" r="12"/>
    <text class="text-label-small" x="615" y="305">0%</text>
  </g>
  
  <!-- Heaters N5-N8 (Bottom Row) -->
  <!-- N5 -->
  <g id="heater-n5">
    <text class="text-label" x="800" y="260" text-anchor="middle" font-weight="bold">N5</text>
    <rect class="damper-closed" x="770" y="470" width="20" height="60" rx="3"/>
    <text class="text-label-small" x="765" y="555" transform="rotate(-90 765 555)">Wlot</text>
    <rect class="heater-off" x="770" y="400" width="60" height="60" rx="5"/>
    <text class="text-label-small" x="800" y="435" text-anchor="middle" fill="#666">OFF</text>
    <rect class="damper-closed" x="770" y="330" width="20" height="60" rx="3"/>
    <text class="text-label-small" x="765" y="385" transform="rotate(-90 765 385)">Wylot</text>
    <circle class="valve" cx="800" cy="300" r="12"/>
    <text class="text-label-small" x="815" y="305">0%</text>
  </g>
  
  <!-- N6 -->
  <g id="heater-n6">
    <text class="text-label" x="940" y="260" text-anchor="middle" font-weight="bold">N6</text>
    <rect class="damper-closed" x="910" y="470" width="20" height="60" rx="3"/>
    <text class="text-label-small" x="905" y="555" transform="rotate(-90 905 555)">Wlot</text>
    <rect class="heater-off" x="910" y="400" width="60" height="60" rx="5"/>
    <text class="text-label-small" x="940" y="435" text-anchor="middle" fill="#666">OFF</text>
    <rect class="damper-closed" x="910" y="330" width="20" height="60" rx="3"/>
    <text class="text-label-small" x="905" y="385" transform="rotate(-90 905 385)">Wylot</text>
    <circle class="valve" cx="940" cy="300" r="12"/>
    <text class="text-label-small" x="955" y="305">0%</text>
  </g>
  
  <!-- N7 -->
  <g id="heater-n7">
    <text class="text-label" x="1080" y="260" text-anchor="middle" font-weight="bold">N7</text>
    <rect class="damper-closed" x="1050" y="470" width="20" height="60" rx="3"/>
    <text class="text-label-small" x="1045" y="555" transform="rotate(-90 1045 555)">Wlot</text>
    <rect class="heater-off" x="1050" y="400" width="60" height="60" rx="5"/>
    <text class="text-label-small" x="1080" y="435" text-anchor="middle" fill="#666">OFF</text>
    <rect class="damper-closed" x="1050" y="330" width="20" height="60" rx="3"/>
    <text class="text-label-small" x="1045" y="385" transform="rotate(-90 1045 385)">Wylot</text>
    <circle class="valve" cx="1080" cy="300" r="12"/>
    <text class="text-label-small" x="1095" y="305">0%</text>
  </g>
  
  <!-- N8 -->
  <g id="heater-n8">
    <text class="text-label" x="1220" y="260" text-anchor="middle" font-weight="bold">N8</text>
    <rect class="damper-closed" x="1190" y="470" width="20" height="60" rx="3"/>
    <text class="text-label-small" x="1185" y="555" transform="rotate(-90 1185 555)">Wlot</text>
    <rect class="heater-off" x="1190" y="400" width="60" height="60" rx="5"/>
    <text class="text-label-small" x="1220" y="435" text-anchor="middle" fill="#666">OFF</text>
    <rect class="damper-closed" x="1190" y="330" width="20" height="60" rx="3"/>
    <text class="text-label-small" x="1185" y="385" transform="rotate(-90 1185 385)">Wylot</text>
    <circle class="valve" cx="1220" cy="300" r="12"/>
    <text class="text-label-small" x="1235" y="305">0%</text>
  </g>
  
  <!-- Fans -->
  <!-- W1 -->
  <g id="fan-w1">
    <circle class="fan-off" cx="300" cy="650" r="40"/>
    <text class="text-label" x="300" y="655" text-anchor="middle" fill="#666">W1</text>
    <text class="text-label-small" x="300" y="672" text-anchor="middle" fill="#666">OFF</text>
    <text class="text-label" x="300" y="710" text-anchor="middle" font-weight="bold">Wentylator W1</text>
  </g>
  
  <!-- W2 -->
  <g id="fan-w2">
    <circle class="fan-off" cx="500" cy="650" r="40"/>
    <text class="text-label" x="500" y="655" text-anchor="middle" fill="#666">W2</text>
    <text class="text-label-small" x="500" y="672" text-anchor="middle" fill="#666">OFF</text>
    <text class="text-label" x="500" y="710" text-anchor="middle" font-weight="bold">Wentylator W2</text>
  </g>
  
  <!-- System Status Box -->
  <rect x="50" y="750" width="600" height="200" fill="white" stroke="#495057" stroke-width="2" rx="5"/>
  <text class="text-label" x="60" y="775" font-weight="bold" font-size="16">Status systemu:</text>
  <text class="text-label-small" x="70" y="800">• Temperatura zewnętrzna: ≥ 3°C</text>
  <text class="text-label-small" x="70" y="820">• Stan systemu: S0</text>
  <text class="text-label-small" x="70" y="840">• Wszystkie nagrzewnice: WYŁĄCZONE</text>
  <text class="text-label-small" x="70" y="860">• Wszystkie wentylatory: WYŁĄCZONE</text>
  <text class="text-label-small" x="70" y="880">• Wszystkie przepustnice: ZAMKNIĘTE</text>
  <text class="text-label-small" x="70" y="900">• Wszystkie zawory wody: ZAMKNIĘTE (0%)</text>
  <text class="text-label-small" x="70" y="920">• System nie wymaga ogrzewania powietrza</text>
  
</svg>
