<?xml version="1.0" encoding="utf-8"?>
<svg xmlns="http://www.w3.org/2000/svg" viewBox="19.339 33.139 1369.735 1005.1" width="1369.73px" height="1005.1px">
  <defs>
    <marker id="marker-3" markerHeight="8" markerWidth="8" orient="auto-start-reverse" refX="9" refY="5" viewBox="0 0 10 10">
      <path d="m0,0l10,5l-10,5l0,-10z" fill="#111" id="path-2"/>
    </marker>
    <marker id="marker-1" markerHeight="8" markerWidth="8" orient="auto-start-reverse" refX="9" refY="5" viewBox="0 0 10 10">
      <path d="m0,0l10,5l-10,5l0,-10z" fill="#111" id="arrow1"/>
    </marker>
    <marker id="marker-2" markerHeight="8" markerWidth="8" orient="auto-start-reverse" refX="9" refY="5" viewBox="0 0 10 10">
      <path d="m0,0l10,5l-10,5l0,-10z" fill="#111" id="path-1"/>
    </marker>
    <marker id="arrow-head" markerHeight="8" markerWidth="8" orient="auto-start-reverse" refX="9" refY="5" viewBox="0 0 10 10">
      <path d="m0,0l10,5l-10,5l0,-10z" fill="#111" id="path-3"/>
    </marker>
    <style>.title { font-family: "Arial", sans-serif; font-weight: 600; font-size: 26px; fill: #111; }
    .label { font-family: "Arial", sans-serif; font-size: 18px; fill: #111; }
    .note { font-family: "Arial", sans-serif; font-size: 18px; fill: #111; }
    .flow-label { font-family: "Arial", sans-serif; font-size: 13px; fill: #111; text-anchor: middle; }
    .heater-label { font-family: "Arial", sans-serif; font-size: 20px; font-weight: 600; fill: #111; text-anchor: middle; }
    .component { stroke: #111; stroke-width: 2.2px; fill: #fff; }
    .component-active { stroke: #28a745; stroke-width: 3px; fill: #d4edda; }
    .component-inactive { stroke: #888; stroke-width: 2.2px; fill: #e0e0e0; }
    .duct { stroke: #333; stroke-width: 4px; fill: none; }
    .duct-active { stroke: #28a745; stroke-width: 5px; fill: none; }
    .duct-inactive { stroke: #aaa; stroke-width: 4px; fill: none; stroke-dasharray: 12 8; }
    .diag { stroke: #111; stroke-width: 2px; }
    .diag-active { stroke: #28a745; stroke-width: 3px; }
    .diag-inactive { stroke: #888; stroke-width: 2px; }
    .fan-outline { stroke: #111; stroke-width: 3px; fill: #fff; }
    .fan-outline-active { stroke: #28a745; stroke-width: 4px; fill: #d4edda; }
    .fan-outline-inactive { stroke: #888; stroke-width: 3px; fill: #e0e0e0; }
    .annotation { font-family: "Arial", sans-serif; font-size: 16px; fill: #111; }
    .valve { stroke: #111; stroke-width: 2px; fill: #f8f8f8; }
    .status-box { fill: #d4edda; stroke: #28a745; stroke-width: 2px; }
    .status-text { font-family: "Arial", sans-serif; font-size: 18px; font-weight: 600; fill: #155724; }</style>
  </defs>
  <rect x="19.339" y="33.139" width="1369.735" height="1005.1" fill="#ffffff" transform="matrix(1, 0, 0, 1, 0, 7.105427357601002e-15)"/>
  <g transform="matrix(1, 0, 0, 1, -9.931753158569336, 179.59533691406253)">
    <text class="annotation" font-size="16" id="svg_14" x="77.24" y="80.71" style="white-space: pre;">Do wyrzutni</text>
    <text class="annotation" font-size="16" id="svg_15" x="77" y="103.83" style="white-space: pre;">Poziom 4,30 m</text>
  </g>
  <g transform="matrix(1, 0, 0, 1, -17.531099319458008, -76.44670104980469)">
    <text class="annotation" font-size="16" id="svg_17" x="76.654" y="597.278" style="white-space: pre; font-size: 16px;">Do wyrzutni</text>
    <text class="annotation" font-size="16" id="svg_18" x="75.654" y="621.938" style="white-space: pre; font-size: 16px;">Poziom 7,90 m</text>
  </g>
  <line class="signal-line" x1="676.259" y1="568.923" x2="270.693" y2="568.613" style="stroke-width: 2.5; fill: none; stroke: rgb(21, 87, 36); stroke-dasharray: 8px, 4px; transform-origin: 473.477px 568.75px;" transform="matrix(0, -1, 1, 0, 0.00008392, -0.00003052)"/>
  <line class="air-line" marker-end="url(#marker-3)" x1="28.985" y1="550.633" x2="496.517" y2="549.683" style="stroke-width: 3.5; fill: none; stroke: rgb(149, 165, 166); transform-origin: 262.753px 549.683px;" transform="matrix(-1, 0, 0, -1, 0, 0)"/>
  <rect class="valve" height="40" id="svg_11" width="20" x="210.699" y="532.621" transform="matrix(1, 0, 0, 1, 0, 7.105427357601002e-15)"/>
  <line class="air-line" marker-end="url(#marker-3)" x1="32.843" y1="295.708" x2="502.415" y2="295.101" style="stroke-width: 3.5; fill: none; stroke: rgb(149, 165, 166); transform-origin: 267.632px 295.101px;" transform="matrix(-1, 0, 0, -1, 0, 0)"/>
  <rect class="valve" height="40" id="svg_121" width="20" x="207.809" y="273.057" transform="matrix(1, 0, 0, 1, 0, 7.105427357601002e-15)"/>
  <line class="air-line" x1="120.826" y1="421.314" x2="373.34" y2="421.024" style="stroke-width: 3.5; fill: none; stroke: rgb(149, 165, 166); transform-origin: 247.083px 421.169px;" transform="matrix(0, 1, -1, 0, -0.00003052, 0.00001526)"/>
  <rect class="valve" height="40" id="svg_123" transform="matrix(0.00938700046390295, 0.9999560117721558, -0.9999560117721558, 0.00938700046390295, 677.4515991210938, 153.37878417968753)" width="20" x="253.82" y="412.55" style="stroke-width: 2;"/>
  <rect class="valve" height="40" id="svg_120" width="20" x="268.227" y="272.388" transform="matrix(1, 0, 0, 1, 0, 7.105427357601002e-15)"/>
  <rect class="valve" height="37" id="svg_122" width="20" x="267.541" y="534.614" transform="matrix(1, 0, 0, 1, 0, 7.105427357601002e-15)"/>
  <g transform="matrix(1, 0, 0, 1, -174.4570770263672, 4.972493171691902)">
    <rect class="regulator" x="972.706" y="214.209" width="200" height="150" rx="5" style="stroke-width: 2.5; fill: rgb(232, 244, 248); stroke: rgb(17, 17, 17);"/>
    <text class="label" text-anchor="middle" x="1085.25" y="246.628" font-weight="bold" style="white-space: pre; stroke-width: 1; font-size: 18px;">Regulator PID</text>
    <text class="small-label" x="1108.39" y="349.787" style="white-space: pre; stroke-width: 1; font-size: 14px; fill: rgb(17, 17, 17); font-family: Arial, sans-serif; perspective-origin: 89.6719px 84px;">PV</text>
    <text class="param-label" x="1107.7" y="266.53" style="white-space: pre; stroke-width: 1; font-size: 13px; fill: rgb(17, 17, 17); font-family: Arial, sans-serif; perspective-origin: 96.3828px 63.1875px;">CV max</text>
    <text class="param-label" x="1107.7" y="286.53" style="white-space: pre; stroke-width: 1; font-size: 13px; fill: rgb(17, 17, 17); font-family: Arial, sans-serif; perspective-origin: 95.4766px 68.1875px;">CV min</text>
    <text class="param-label" x="1107.7" y="306.53" style="white-space: pre; stroke-width: 1; font-size: 13px; fill: rgb(17, 17, 17); font-family: Arial, sans-serif; perspective-origin: 96.5625px 73.1875px;">CV man</text>
    <text class="param-label" x="1108.76" y="328.543" style="white-space: pre; stroke-width: 1; font-size: 13px; fill: rgb(17, 17, 17); font-family: Arial, sans-serif; perspective-origin: 89.4219px 78.6875px;">SP</text>
    <text class="param-label" x="980.87" y="291.696" style="white-space: pre; stroke-width: 1; font-size: 13px; fill: rgb(17, 17, 17); font-family: Arial, sans-serif; perspective-origin: 96.5625px 73.1875px;">CV</text>
  </g>
  <rect x="332.389" y="240.788" width="112.339" height="107.473" fill="#e0e0e0" stroke="#333" stroke-width="2" rx="3" style="stroke-width: 2;" transform="matrix(1, 0, 0, 1, 0, 7.105427357601002e-15)"/>
  <line class="duct" id="line-2" x1="612.717" x2="662.926" y1="294.079" y2="294.079" style="" transform="matrix(1, 0, 0, 1, 0, 7.105427357601002e-15)"/>
  <circle class="fan-outline" cx="558.855" cy="294.033" id="svg_129" r="55" style="stroke-width: 3;" transform="matrix(1, 0, 0, 1, 0, 7.105427357601002e-15)"/>
  <text class="label" font-size="18" id="svg_103" text-anchor="middle" x="556.294" y="301.933" style="white-space: pre; stroke-width: 1; font-size: 18px;" transform="matrix(1, 0, 0, 1, 0, 7.105427357601002e-15)">W1</text>
  <circle class="component" cx="682.691" cy="294.757" id="svg_104" r="22" style="stroke-width: 2.2;" transform="matrix(1, 0, 0, 1, 0, 7.105427357601002e-15)"/>
  <text class="heater-label" font-size="20" id="svg_105" x="681.921" y="300.247" style="white-space: pre; stroke-width: 1; font-size: 20px;" transform="matrix(1, 0, 0, 1, 0, 7.105427357601002e-15)">M</text>
  <rect x="337.382" y="492.908" width="112.339" height="107.473" fill="#e0e0e0" stroke="#333" stroke-width="2" rx="3" style="stroke-width: 2;" transform="matrix(1, 0, 0, 1, 0, 7.105427357601002e-15)"/>
  <line class="duct" id="line-7" x1="606.473" x2="662.698" y1="546.646" y2="546.646" style="stroke-width: 4;" transform="matrix(1, 0, 0, 1, 0, 7.105427357601002e-15)"/>
  <circle class="fan-outline" cx="553.032" cy="545.571" id="circle-1" r="55" style="stroke-width: 3;" transform="matrix(1, 0, 0, 1, 0, 7.105427357601002e-15)"/>
  <text class="label" font-size="18" id="text-1" text-anchor="middle" x="552.707" y="548.066" style="white-space: pre; stroke-width: 1; font-size: 18px;" transform="matrix(1, 0, 0, 1, 0, 3.000000000000007)">W2<tspan x="552.7069702148438" dy="1em">​</tspan></text>
  <circle class="component" cx="683.868" cy="545.295" id="circle-2" r="22" style="stroke-width: 2.2;" transform="matrix(1, 0, 0, 1, 0, 7.105427357601002e-15)"/>
  <text class="heater-label" font-size="20" id="text-2" x="683.098" y="550.785" style="white-space: pre; stroke-width: 1; font-size: 20px;" transform="matrix(1, 0, 0, 1, 0, 7.105427357601002e-15)">M</text>
  <g transform="matrix(1, 0, 0, 1, -173.091796875, 257.344970703125)">
    <rect class="regulator" x="972.706" y="214.209" width="200" height="150" rx="5" style="stroke-width: 2.5; fill: rgb(232, 244, 248); stroke: rgb(17, 17, 17);"/>
    <text class="label" text-anchor="middle" x="1085.25" y="246.628" font-weight="bold" style="white-space: pre; stroke-width: 1; font-size: 18px;">Regulator PID</text>
    <text class="small-label" x="1108.39" y="349.787" style="white-space: pre; stroke-width: 1; font-size: 14px; fill: rgb(17, 17, 17); font-family: Arial, sans-serif; perspective-origin: 89.6719px 84px;">PV</text>
    <text class="param-label" x="1107.7" y="266.53" style="white-space: pre; stroke-width: 1; font-size: 13px; fill: rgb(17, 17, 17); font-family: Arial, sans-serif; perspective-origin: 96.3828px 63.1875px;">CV max</text>
    <text class="param-label" x="1107.7" y="286.53" style="white-space: pre; stroke-width: 1; font-size: 13px; fill: rgb(17, 17, 17); font-family: Arial, sans-serif; perspective-origin: 95.4766px 68.1875px;">CV min</text>
    <text class="param-label" x="1107.7" y="306.53" style="white-space: pre; stroke-width: 1; font-size: 13px; fill: rgb(17, 17, 17); font-family: Arial, sans-serif; perspective-origin: 96.5625px 73.1875px;">CV man</text>
    <text class="param-label" x="1108.76" y="328.543" style="white-space: pre; stroke-width: 1; font-size: 13px; fill: rgb(17, 17, 17); font-family: Arial, sans-serif; perspective-origin: 89.4219px 78.6875px;">SP</text>
    <text class="param-label" x="980.87" y="291.696" style="white-space: pre; stroke-width: 1; font-size: 13px; fill: rgb(17, 17, 17); font-family: Arial, sans-serif; perspective-origin: 96.5625px 73.1875px;">CV</text>
  </g>
  <g transform="matrix(1, 0, 0, 1, 1031.99267578125, 194.58100891113284)">
    <text class="annotation" x="15.725" y="286.793" style="white-space: pre; font-size: 14px;">PV (wartość mierzona)</text>
    <text class="param-label" x="50.512" y="303.104" font-weight="bold" style="white-space: pre; font-size: 13px; fill: rgb(17, 17, 17); font-family: Arial, sans-serif; perspective-origin: 25.3281px 76.5234px;">Ts = 2°C</text>
    <text class="param-label" x="29.956" y="318.631" style="white-space: pre; font-size: 13px; fill: rgb(17, 17, 17); font-family: Arial, sans-serif; perspective-origin: 31.1328px 80.4062px;">(temp. w szybie)</text>
  </g>
  <text class="param-label" style="font-weight: 700; text-anchor: middle; white-space: pre; fill: rgb(17, 17, 17); font-family: Arial, sans-serif; font-size: 13px; line-height: 20.8px; perspective-origin: 275.641px 197.094px;" transform="matrix(1, 0, 0, 1, -679.0014648437501, -476.364013671875)" x="1067.18994140625" y="759.3909912109375">Zespół<tspan x="1067.18994140625" dy="1em">​</tspan>nagrzewnic<tspan x="1067.18994140625" dy="1em">​</tspan>ciągu 1</text>
  <text class="param-label" style="font-weight: 700; text-anchor: middle; white-space: pre; fill: rgb(17, 17, 17); font-family: Arial, sans-serif; font-size: 13px; line-height: 20.8px; perspective-origin: 275.641px 197.094px;" transform="matrix(1, 0, 0, 1, -674.2771606445314, -218.7207489013672)" x="1067.18994140625" y="759.3909912109375">Zespół<tspan x="1067.18994140625" dy="1em">​</tspan>nagrzewnic<tspan x="1067.18994140625" dy="1em">​</tspan>ciągu 2</text>
  <circle class="sensor" cx="78.457" cy="799.653" r="25" style="stroke-width: 2; fill: rgb(255, 230, 230); stroke: rgb(17, 17, 17);" transform="matrix(1, 0, 0, 1, 0, 7.105427357601002e-15)"/>
  <text class="label" text-anchor="middle" x="78.957" y="806.333" font-size="16" style="white-space: pre; stroke-width: 1; font-size: 18px;" transform="matrix(1, 0, 0, 1, 0, 7.105427357601002e-15)">T</text>
  <line class="signal-line" x1="1036.36" y1="799.361" x2="101.89" y2="799.361" style="stroke-width: 2.5; fill: none; stroke: rgb(21, 87, 36); stroke-dasharray: 8px, 4px;" transform="matrix(1, 0, 0, 1, 0, 7.105427357601002e-15)"/>
  <line class="signal-line" x1="1256.88" y1="575.35" x2="813.098" y2="576.674" style="stroke-width: 2.5; fill: none; stroke: rgb(21, 87, 36); stroke-dasharray: 8px, 4px; transform-origin: 1034.99px 576.012px;" transform="matrix(0, -1, 1, 0, 0.00003052, -0.00006104)"/>
  <line class="signal-line" marker-end="url(#marker-1)" x1="1035.02" y1="601.855" x2="1000.98" y2="601.855" style="fill: none; stroke: rgb(21, 87, 36); stroke-dasharray: 8px, 4px; stroke-width: 2.5;" transform="matrix(1, 0, 0, 1, 0, 7.105427357601002e-15)"/>
  <line class="signal-line" marker-end="url(#marker-1)" x1="1034.01" y1="350.552" x2="999.971" y2="350.552" style="fill: none; stroke: rgb(21, 87, 36); stroke-dasharray: 8px, 4px; stroke-width: 2.5;" transform="matrix(1, 0, 0, 1, 0, 7.105427357601002e-15)"/>
  <text class="annotation" font-size="16" id="text-3" x="50.022" y="753.44" style="white-space: pre; font-size: 16px; stroke-width: 1;" transform="matrix(1, 0, 0, 1, 0, 7.105427357601002e-15)">Poziom 30 m</text>
  <text class="title" text-anchor="middle" x="705.71" y="56.639" style="white-space: pre; stroke-width: 1; font-size: 26px;" transform="matrix(1, 0, 0, 1, 0, 7.105427357601002e-15)">Schemat ideowy UAR prędkości wentylatora</text>
  <rect x="453.109" y="363.33" width="188.594" height="90.636" style="fill: rgb(216, 216, 216); stroke: rgb(0, 0, 0); stroke-width: 1;" transform="matrix(1, 0.0006210000137798488, 0, 1, -299.14971923828125, 269.850830078125)"/>
  <text class="param-label" style="font-weight: 700; text-anchor: middle; white-space: pre; fill: rgb(17, 17, 17); font-family: Arial, sans-serif; font-size: 13px; line-height: 20.8px; perspective-origin: 275.641px 197.094px;" transform="matrix(1, 0, 0, 1, -821.0765380859376, -90.03470611572266)" x="1067.18994140625" y="759.3909912109375">Układ sterowania konfig.<tspan x="1067.18994140625" dy="1em">​</tspan>systemu nagrzewania</text>
  <line class="signal-line" x1="406.843" y1="525.867" x2="195.215" y2="525.427" style="stroke-width: 2.5; fill: none; stroke: rgb(21, 87, 36); stroke-dasharray: 8px, 4px; transform-origin: 301.029px 525.647px;" transform="matrix(0, -1, 1, 0, 0.00003052, -0.00006104)"/>
  <line class="signal-line" x1="481.956" y1="470.616" x2="156.991" y2="470.607" style="stroke-width: 2.5; fill: none; stroke: rgb(21, 87, 36); stroke-dasharray: 8px, 4px; transform-origin: 319.474px 470.611px;" transform="matrix(0, -1, 1, 0, -0.00007629, 0)"/>
  <line class="signal-line" x1="335.18" y1="470.248" x2="8.489" y2="470.269" style="stroke-width: 2.5; fill: none; stroke: rgb(21, 87, 36); stroke-dasharray: 8px, 4px; transform-origin: 171.835px 470.259px;" transform="matrix(0, -1, 1, 0, -0.00006103, 0.00006104)"/>
  <line class="signal-line" marker-end="url(#marker-2)" x1="172.514" y1="306.65" x2="204.311" y2="306.65" style="stroke-width: 2.5; fill: none; stroke: rgb(21, 87, 36); stroke-dasharray: 8px, 4px;" transform="matrix(1, 0, 0, 1, 0, 7.105427357601002e-15)"/>
  <line class="signal-line" marker-end="url(#marker-2)" x1="289.092" y1="306.776" x2="320.888" y2="306.776" style="stroke-width: 2.5; fill: none; stroke: rgb(21, 87, 36); stroke-dasharray: 8px, 4px; transform-origin: 304.99px 306.776px;" transform="matrix(-1.00000229, 0.00000278, 0.00000458, -1.00000057, 0, -0.00043936)"/>
  <line class="signal-line" marker-end="url(#marker-2)" x1="299.821" y1="421.07" x2="268.025" y2="421.07" style="stroke-width: 2.5; fill: none; stroke: rgb(21, 87, 36); stroke-dasharray: 8px, 4px;" transform="matrix(1, 0, 0, 1, 0, 7.105427357601002e-15)"/>
  <line class="signal-line" marker-end="url(#marker-2)" x1="250.253" y1="604.977" x2="190.937" y2="604.386" style="stroke-width: 2.5; fill: none; stroke: rgb(21, 87, 36); stroke-dasharray: 8px, 4px; transform-origin: 220.595px 604.681px;" transform="matrix(0, 1, -1, 0, 0.00001526, 0.00004578)"/>
  <line class="signal-line" marker-end="url(#marker-2)" x1="306.686" y1="601.901" x2="247.37" y2="601.31" style="stroke-width: 2.5; fill: none; stroke: rgb(21, 87, 36); stroke-dasharray: 8px, 4px; transform-origin: 277.028px 601.605px;" transform="matrix(0, 1, -1, 0, 0, 0.00006104)"/>
  <line class="signal-line" marker-end="url(#marker-2)" x1="237.713" y1="747.048" x2="198.565" y2="747.108" style="stroke-width: 2.5; fill: none; stroke: rgb(21, 87, 36); stroke-dasharray: 8px, 4px; transform-origin: 218.139px 747.078px;" transform="matrix(0, 1, -1, 0, 0.00012207, 0.00006104)"/>
  <line class="signal-line" marker-end="url(#marker-2)" x1="300.293" y1="739.974" x2="270.871" y2="738.657" style="stroke-width: 2.5; fill: none; stroke: rgb(21, 87, 36); stroke-dasharray: 8px, 4px; transform-origin: 285.582px 739.317px;" transform="matrix(0, 1, -1, 0, 0.00003052, 0)"/>
  <line class="signal-line" x1="395.537" y1="761.876" x2="284.17" y2="761.391" style="stroke-width: 2.5; fill: none; stroke: rgb(21, 87, 36); stroke-dasharray: 8px, 4px; transform-origin: 339.854px 761.633px;" transform="matrix(-1, 0, 0, -1, 0, 0)"/>
  <line class="signal-line" x1="474.353" y1="773.178" x2="217.044" y2="774.367" style="stroke-width: 2.5; fill: none; stroke: rgb(21, 87, 36); stroke-dasharray: 8px, 4px; transform-origin: 345.7px 773.772px;" transform="matrix(-1, 0, 0, -1, 0, -0.00012207)"/>
  <line class="signal-line" x1="475.095" y1="366.416" x2="391.257" y2="366.976" style="stroke-width: 2.5; fill: none; stroke: rgb(21, 87, 36); stroke-dasharray: 8px, 4px; transform-origin: 433.177px 366.697px;" transform="matrix(-1, 0, 0, -1, 0.00006104, 0)"/>
  <line class="signal-line" x1="473.006" y1="681.688" x2="314.847" y2="681.408" style="stroke-width: 2.5; fill: none; stroke: rgb(21, 87, 36); stroke-dasharray: 8px, 4px; transform-origin: 393.927px 681.533px;" transform="matrix(0, -1, 1, 0, -0.00003052, 0.00009155)"/>
  <line class="signal-line" x1="399.359" y1="356.246" x2="379.249" y2="356.154" style="stroke-width: 2.5; fill: none; stroke: rgb(21, 87, 36); stroke-dasharray: 8px, 4px; transform-origin: 389.304px 356.195px;" transform="matrix(0, -1, 1, 0, -0.00001526, -0.00003052)"/>
  <g transform="matrix(1, 0, 0, 1, -7.8914618492126465, -9.542259216308587)">
    <rect x="895.619" y="815.545" width="493.455" height="222.694" fill="#fffef0" stroke="#111" stroke-width="1.5" rx="5" style="stroke-width: 1.5;"/>
    <text class="label" font-weight="bold" x="904.586" y="839.147" style="white-space: pre; stroke-width: 1; font-size: 18px;">Legenda:</text>
    <g>
      <g>
        <text class="annotation" x="974.586" y="874.147" style="white-space: pre; stroke-width: 1; font-size: 14px;">Sygnał sterujący/pomiarowy</text>
        <line class="air-line" x1="904.586" y1="894.147" x2="964.586" y2="894.147" style="stroke-width: 3.5; fill: none; stroke: rgb(149, 165, 166);"/>
        <text class="annotation" x="974.586" y="899.147" style="white-space: pre; stroke-width: 1; font-size: 14px;">Przepływ powietrza</text>
        <line class="shaft" x1="904.586" y1="919.147" x2="964.586" y2="919.147" style="stroke-width: 4; fill: none; stroke: rgb(51, 51, 51);"/>
        <text class="annotation" x="974.586" y="924.147" style="white-space: pre; stroke-width: 1; font-size: 14px;">Połączenie mechaniczne (wał)</text>
        <line class="signal-line" x1="904.586" y1="869.147" x2="964.586" y2="869.147" style="stroke-width: 2.5; fill: none; stroke: rgb(21, 87, 36); stroke-dasharray: 8px, 4px;"/>
      </g>
      <text class="annotation" x="906.586" y="949.147" style="white-space: pre; stroke-width: 1; font-size: 14px;">SP (Set Point) - wartość zadana regulacji (Ts = 2°C)</text>
      <text class="annotation" x="904.586" y="969.147" style="white-space: pre; stroke-width: 1; font-size: 14px;">PV (Process Variable) - wartość mierzona (temperatura w szybie na -4,30m)</text>
      <text class="annotation" x="904.586" y="989.147" style="white-space: pre; stroke-width: 1; font-size: 14px;">CV (Control Variable) - sygnał wyjściowy regulatora (częstotliwość 25-50 Hz)</text>
      <text class="annotation" x="904.586" y="1009.15" style="white-space: pre; stroke-width: 1; font-size: 14px;">M - silnik elektryczny 3-fazowy napędzający wentylator</text>
      <text class="annotation" x="904.586" y="1029.15" style="white-space: pre; stroke-width: 1; font-size: 14px;">W1 - wentylator obsługujący nagrzewnice N1-N4</text>
    </g>
  </g>
  <line class="signal-line" marker-end="url(#arrow-head)" x1="706.664" y1="293.919" x2="796.074" y2="293.919" style="stroke-width: 2.5; fill: none; stroke: rgb(21, 87, 36); stroke-dasharray: 8px, 4px; transform-origin: 751.369px 293.919px;" transform="matrix(-0.99999919, -6.8e-7, 0, -1, -0.00083331, 0.00052082)"/>
  <line class="signal-line" marker-end="url(#arrow-head)" x1="797.014" y1="544.608" x2="707.604" y2="544.608" style="stroke-width: 2.5; fill: none; stroke: rgb(21, 87, 36); stroke-dasharray: 8px, 4px; transform-origin: 759.209px 510.251px;"/>
</svg>