<svg width="1400" height="900" xmlns="http://www.w3.org/2000/svg" xmlns:svg="http://www.w3.org/2000/svg" xmlns:bx="https://boxy-svg.com">
  <defs>
    <marker id="arrow-head" markerHeight="8" markerWidth="8" orient="auto-start-reverse" refX="9" refY="5" viewBox="0 0 10 10">
      <path d="m0,0l10,5l-10,5l0,-10z" fill="#111" id="arrow1"></path>
    </marker>
  </defs>
  <style>
    .title { font-family: "Arial", sans-serif; font-weight: 600; font-size: 26px; fill: #111; }
    .label { font-family: "Arial", sans-serif; font-size: 18px; fill: #111; }
    .small-label { font-family: "Arial", sans-serif; font-size: 14px; fill: #111; }
    .note { font-family: "Arial", sans-serif; font-size: 16px; fill: #111; }
    .flow-label { font-family: "Arial", sans-serif; font-size: 15px; fill: #111; text-anchor: middle; }
    .component { stroke: #111; stroke-width: 2.2px; fill: #fff; }
    .duct { stroke: #333; stroke-width: 3px; fill: none; }
    .signal-line { stroke: #155724; stroke-width: 2.5px; fill: none; stroke-dasharray: 8 4; }
    .water-line-hot { stroke: #dc3545; stroke-width: 3.5px; fill: none; }
    .water-line-return { stroke: #3498db; stroke-width: 3.5px; fill: none; }
    .air-line { stroke: #95a5a6; stroke-width: 3.5px; fill: none; }
    .regulator { stroke: #111; stroke-width: 2.5px; fill: #e8f4f8; }
    .valve { stroke: #111; stroke-width: 2.5px; fill: #f8f8f8; }
    .heater { stroke: #111; stroke-width: 2.5px; fill: #fff5e6; }
    .sensor { stroke: #111; stroke-width: 2px; fill: #ffe6e6; }
    .annotation { font-family: "Arial", sans-serif; font-size: 14px; fill: #111; }
    .param-label { font-family: "Arial", sans-serif; font-size: 13px; fill: #111; }
</style>
  <rect width="1400" height="900" fill="#fff"></rect>
  <g transform="matrix(1, 0, 0, 1, -66.412882, 4.216675)">
    <rect x="95.93" y="591.654" width="533.938" height="265.124" rx="10" ry="10" style="fill: rgb(255, 254, 240); stroke: rgb(17, 17, 17); stroke-width: 1.514px;"></rect>
    <text class="label" font-weight="bold" x="0" y="0" style="white-space: pre;" transform="matrix(1.018278, 0, 0, 1, 101.440921, 610.468646)">Legenda:</text>
    <line class="signal-line" x1="101.441" y1="640.469" x2="162.538" y2="640.469" style="stroke-width: 2.523;"></line>
    <text class="annotation" x="70" y="35" style="white-space: pre;" transform="matrix(1.018278, 0, 0, 1, 101.440921, 610.468646)">Sygnał sterujący/pomiarowy</text>
    <line class="water-line-hot" x1="101.441" y1="665.469" x2="162.538" y2="665.469" style="stroke-width: 3.532;"></line>
    <text class="annotation" x="70" y="60" style="white-space: pre;" transform="matrix(1.018278, 0, 0, 1, 101.440921, 610.468646)">Woda grzewcza (zasilanie)</text>
    <line class="water-line-return" x1="101.441" y1="690.469" x2="162.538" y2="690.469" style="stroke-width: 3.532;"></line>
    <text class="annotation" x="70" y="85" style="white-space: pre;" transform="matrix(1.018278, 0, 0, 1, 101.440921, 610.468646)">Woda powrotna</text>
    <line class="air-line" x1="101.441" y1="715.469" x2="162.538" y2="715.469" style="stroke-width: 3.532;"></line>
    <text class="annotation" x="70" y="110" style="white-space: pre;" transform="matrix(1.018278, 0, 0, 1, 101.440921, 610.468646)">Powietrze</text>
    <text class="annotation" x="0" y="20" style="white-space: pre;" transform="matrix(1.018278, 0, 0, 1, 103.549281, 723.616599)">SP (Set Point) - wartość zadana regulacji</text>
    <text class="annotation" x="0" y="40" style="white-space: pre;" transform="matrix(1.018278, 0, 0, 1, 101.968005, 724.670737)">PV (Process Variable) - wartość mierzona</text>
    <text class="annotation" x="0" y="60" style="white-space: pre;" transform="matrix(1.018278, 0, 0, 1, 101.968005, 724.670737)">CV (Control Variable) - sygnał wyjściowy regulatora</text>
    <text class="annotation" x="0" y="80" style="white-space: pre;" transform="matrix(1.018278, 0, 0, 1, 101.968005, 724.670737)">Tz - temperatura zadana (50°C)</text>
    <text class="annotation" x="0" y="100" style="white-space: pre;" transform="matrix(1.018278, 0, 0, 1, 101.968005, 724.670737)">Pzmin - minimalne otwarcie zaworu (20%) - zabezpieczenie przed zamrożeniem</text>
    <text class="annotation" x="0" y="120" style="white-space: pre;" transform="matrix(1.018278, 0, 0, 1, 101.968005, 724.670737)">Pzmax - maksymalne otwarcie zaworu (100%)</text>
  </g>
  <text class="title" text-anchor="middle" x="700" y="40" style="white-space: pre;" transform="matrix(1.018278, 0, 0, 1, -8.293183, 13.704235)">Rys. 1. Schemat ideowy UAR temperatury powietrza na wylocie z nagrzewnicy</text>
  <rect class="regulator" x="144.449" y="313.704" width="203.656" height="150" rx="5" style="stroke-width: 2.523;"></rect>
  <text class="label" text-anchor="middle" x="250" y="330" font-weight="bold" style="white-space: pre;" transform="matrix(1.018278, 0, 0, 1, -8.293183, 13.704235)">Regulator PID</text>
  <text class="small-label" x="170" y="355" style="white-space: pre;" transform="matrix(1.018278, 0, 0, 1, -8.293183, 13.704235)">Parametry:</text>
  <text class="param-label" x="180" y="375" style="white-space: pre;" transform="matrix(1.018278, 0, 0, 1, -8.293183, 13.704235)">Kp - wzmocnienie</text>
  <text class="param-label" x="180" y="395" style="white-space: pre;" transform="matrix(1.018278, 0, 0, 1, -8.293183, 13.704235)">Ti - człon całkujący</text>
  <text class="param-label" x="180" y="415" style="white-space: pre;" transform="matrix(1.018278, 0, 0, 1, -8.293183, 13.704235)">Td - człon różniczkujący</text>
  <line class="signal-line" marker-end="url(#arrow-head)" x1="42.621" y1="343.704" x2="144.448" y2="343.704" style="stroke-width: 2.523;"></line>
  <text class="annotation" x="60" y="320" style="white-space: pre;" transform="matrix(1.018278, 0, 0, 1, -33.066243, -12.16687)">SP (wartość zadana)</text>
  <text class="param-label" x="60" y="340" style="white-space: pre;" transform="matrix(1.018278, 0, 0, 1, -5.130657, -10.344094)">Tz = 50°C</text>
  <line class="signal-line" marker-end="url(#arrow-head)" x1="246.276" y1="562.167" x2="246.276" y2="463.704" style="stroke-width: 2.523;"></line>
  <text class="annotation" x="260" y="490" style="white-space: pre;" transform="matrix(1.018278, 0, 0, 1, -8.293183, 13.704235)">PV (temperatura mierzona)</text>
  <line class="signal-line" marker-end="url(#arrow-head)" x1="348.104" y1="388.704" x2="500.532" y2="388.704" style="stroke-width: 2.523;"></line>
  <text class="annotation" x="360" y="365" style="white-space: pre;" transform="matrix(1.018278, 0, 0, 1, -8.293185, 10.704235)">CV (sygnał sterujący)</text>
  <text class="param-label" x="360" y="385" style="white-space: pre;" transform="matrix(1.018278, 0, 0, 1, -8.293185, 19.704239)">Pzmin = 20%</text>
  <text class="param-label" x="360" y="400" style="white-space: pre;" transform="matrix(1.018278, 0, 0, 1, -8.293185, 19.704239)">Pzmax = 100%</text>
  <rect class="valve" x="501.373" y="338.448" width="101.828" height="110" rx="3" style="stroke-width: 2.523;"></rect>
  <text class="label" text-anchor="middle" x="50" y="30" font-weight="bold" style="white-space: pre;" transform="matrix(1.018278, 0, 0, 1, 503.481308, 354.787761)">Zawór</text>
  <text class="label" text-anchor="middle" x="50" y="50" style="white-space: pre;" transform="matrix(1.018278, 0, 0, 1, 502.062637, 354.477397)">regulacyjny</text>
  <rect class="heater" x="755.415" y="225.227" width="305.483" height="288.477" rx="5" style="stroke-width: 2.523;"></rect>
  <text class="label" text-anchor="middle" x="900" y="280" font-weight="bold" font-size="22" style="white-space: pre;" transform="matrix(1.018278, 0, 0, 1, -8.293183, 13.704235)">NAGRZEWNICA</text>
  <text class="label" text-anchor="middle" x="900" y="305" font-weight="bold" font-size="20" style="white-space: pre;" transform="matrix(1.018278, 0, 0, 1, -8.293183, 13.704235)">(Nx)</text>
  <g transform="matrix(1.018278, 0, 0, 1, 785.963708, 343.704264)">
    <path d="M 0,0 Q 15,-15 30,0 T 60,0 T 90,0 T 120,0 T 150,0 T 180,0 T 210,0 T 240,0" stroke="#dc3545" stroke-width="3" fill="none"></path>
    <path d="M 0,20 Q 15,5 30,20 T 60,20 T 90,20 T 120,20 T 150,20 T 180,20 T 210,20 T 240,20" stroke="#dc3545" stroke-width="3" fill="none"></path>
    <path d="M 0,40 Q 15,25 30,40 T 60,40 T 90,40 T 120,40 T 150,40 T 180,40 T 210,40 T 240,40" stroke="#dc3545" stroke-width="3" fill="none"></path>
  </g>
  <line class="water-line-hot" marker-end="url(#arrow-head)" x1="603.515" y1="389.048" x2="754.888" y2="389.048" style="stroke-width: 3.532;"></line>
  <text class="annotation" x="660" y="310" fill="#dc3545" font-weight="bold" style="white-space: pre;" transform="matrix(1.018278, 0, 0, 1, -55.730959, 72.210825)">Woda grzewcza</text>
  <line class="water-line-return" x1="908.159" y1="479.56" x2="908.158" y2="539.53" style="stroke-width: 3.532;"></line>
  <line class="water-line-return" marker-end="url(#arrow-head)" x1="909.665" y1="538.477" x2="552.741" y2="538.477" style="stroke-width: 3.532;"></line>
  <line class="water-line-return" x1="552.287" y1="537.95" x2="552.287" y2="449.502" style="stroke-width: 3.532;"></line>
  <text class="annotation" x="700" y="520" fill="#3498db" font-weight="bold" style="white-space: pre;" transform="matrix(1.018278, 0, 0, 1, -8.293183, 13.704235)">Woda powrotna</text>
  <line class="air-line" marker-end="url(#arrow-head)" x1="605.096" y1="264.465" x2="753.834" y2="264.465" style="stroke-width: 3.532;"></line>
  <text class="annotation" x="640" y="440" fill="#7f8c8d" font-weight="bold" style="white-space: pre;" transform="matrix(1.018278, 0, 0, 1, -39.391313, -187.115682)">Powietrze zimne</text>
  <line class="air-line" marker-end="url(#arrow-head)" x1="1063.01" y1="261.676" x2="1231.56" y2="261.676" style="stroke-width: 3.532;"></line>
  <text class="annotation" x="1100" y="365" fill="#7f8c8d" font-weight="bold" style="white-space: pre;" transform="matrix(1.018278, 0, 0, 1, -47.29762, -113.850719)">Powietrze ogrzane</text>
  <text class="param-label" x="1120" y="395" fill="#155724" font-weight="bold" style="white-space: pre;" transform="matrix(1.018278, 0, 0, 1, -16.726534, -101.727679)">T = Tz (50°C)</text>
  <circle class="sensor" cx="1150" cy="450" r="35" transform="matrix(1.018278, 0, 0, 1, -7.76613, -104.890193)"></circle>
  <text class="label" text-anchor="middle" x="1150" y="455" font-size="16" style="white-space: pre;" transform="matrix(1.018278, 0, 0, 1, -7.76613, -102.781833)">T</text>
  <text class="small-label" text-anchor="middle" x="1150" y="505" style="white-space: pre;" transform="matrix(1.018278, 0, 0, 1, 66.553049, -160.234273)">Czujnik</text>
  <text class="small-label" text-anchor="middle" x="1150" y="520" style="white-space: pre;" transform="matrix(1.018278, 0, 0, 1, 68.661455, -159.707158)">temperatury</text>
  <line class="signal-line" x1="1162.72" y1="381.163" x2="1162.72" y2="563.702" style="stroke-width: 2.523;"></line>
  <line class="signal-line" x1="1162.73" y1="563.704" x2="246.277" y2="563.704" style="stroke-width: 2.523;"></line>
  <g transform="matrix(1, 0, 0, 1, -39.531381, -20.556372)">
    <g>
      <rect x="745.233" y="643.704" width="391.385" height="190.542" fill="#fffef0" stroke="#111" stroke-width="1.5" rx="5" style="stroke-width: 1.514;"></rect>
    </g>
    <text class="label" font-weight="bold" x="0" y="0" style="white-space: pre;" transform="matrix(1.018278, 0, 0, 1, 755.415367, 663.704304)">Zasada działania:</text>
    <text class="annotation" x="0" y="25" style="white-space: pre;" transform="matrix(1.018278, 0, 0, 1, 755.415367, 663.704304)">• Regulator PID porównuje temperaturę zadaną (Tz=50°C)</text>
    <text class="annotation" x="5" y="45" style="white-space: pre;" transform="matrix(1.018278, 0, 0, 1, 755.415367, 663.704304)">z temperaturą mierzoną na wylocie powietrza (PV)</text>
    <text class="annotation" x="0" y="70" style="white-space: pre;" transform="matrix(1.018278, 0, 0, 1, 755.415367, 663.704304)">• Spadek temperatury → zwiększenie otwarcia zaworu</text>
    <text class="annotation" x="5" y="90" style="white-space: pre;" transform="matrix(1.018278, 0, 0, 1, 755.415367, 663.704304)">(więcej gorącej wody przez nagrzewnicę)</text>
    <text class="annotation" x="0" y="115" style="white-space: pre;" transform="matrix(1.018278, 0, 0, 1, 755.415367, 663.704304)">• Wzrost temperatury → zmniejszenie otwarcia zaworu</text>
    <text class="annotation" x="5" y="135" style="white-space: pre;" transform="matrix(1.018278, 0, 0, 1, 755.415367, 663.704304)">(mniej gorącej wody przez nagrzewnicę)</text>
    <text class="annotation" x="0" y="160" style="white-space: pre;" transform="matrix(1.018278, 0, 0, 1, 755.415367, 663.704304)">• Min. 20% otwarcia zapobiega zamrożeniu nagrzewnicy</text>
  </g>
</svg>
