<?xml version="1.0" encoding="utf-8"?>
<svg xmlns="http://www.w3.org/2000/svg" viewBox="0 0.342 1400 900" width="1400px" height="900px">
  <defs>
    <marker id="arrow-head" markerHeight="8" markerWidth="8" orient="auto-start-reverse" refX="9" refY="5" viewBox="0 0 10 10">
      <path d="m0,0l10,5l-10,5l0,-10z" fill="#888" id="arrow1"/>
    </marker>
    <style>
    .title { font-family: "Arial", sans-serif; font-weight: 600; font-size: 26px; fill: #111; }
    .label { font-family: "Arial", sans-serif; font-size: 18px; fill: #111; }
    .small-label { font-family: "Arial", sans-serif; font-size: 14px; fill: #111; }
    .note { font-family: "Arial", sans-serif; font-size: 16px; fill: #111; }
    .flow-label { font-family: "Arial", sans-serif; font-size: 15px; fill: #111; text-anchor: middle; }
    .component { stroke: #111; stroke-width: 2.2px; fill: #fff; }
    .duct { stroke: #333; stroke-width: 3px; fill: none; }
    .signal-line { stroke: #999; stroke-width: 2.5px; fill: none; stroke-dasharray: 8 4; }
    .signal-line-active { stroke: #ffc107; stroke-width: 2.5px; fill: none; stroke-dasharray: 8 4; }
    .water-line-hot-inactive { stroke: #daa; stroke-width: 3.5px; fill: none; stroke-dasharray: 10 5; }
    .water-line-return-inactive { stroke: #abd; stroke-width: 3.5px; fill: none; stroke-dasharray: 10 5; }
    .air-line-inactive { stroke: #ccc; stroke-width: 3.5px; fill: none; stroke-dasharray: 10 5; }
    .regulator { stroke: #ffc107; stroke-width: 2.5px; fill: #fff8e1; }
    .valve { stroke: #888; stroke-width: 2.5px; fill: #f5f5f5; }
    .heater { stroke: #888; stroke-width: 2.5px; fill: #f5f5f5; }
    .sensor { stroke: #888; stroke-width: 2px; fill: #f5f5f5; }
    .annotation { font-family: "Arial", sans-serif; font-size: 14px; fill: #111; }
    .param-label { font-family: "Arial", sans-serif; font-size: 13px; fill: #111; }
    .status-inactive { fill: #fff3cd; stroke: #856404; stroke-width: 2px; }
</style>
  </defs>
  <rect width="1400" height="900" fill="#fff" y="0.342"/>
  
  <!-- Status Box -->
  <rect class="status-inactive" x="50" y="20" width="1300" height="60" rx="5"/>
  <text class="title" text-anchor="middle" x="700" y="45" fill="#856404" font-weight="bold">NAGRZEWNICA - STAN NIEAKTYWNY</text>
  <text class="label" text-anchor="middle" x="700" y="70" fill="#856404">Regulator PID w trybie UTRZYMANIE | Zawór: 20% (stała pozycja - ochrona)</text>
  
  <g transform="matrix(1, 0, 0, 1, -66.41287994384766, 4.2166748046875)">
    <rect x="95.93" y="591.654" width="533.938" height="265.124" rx="10" ry="10" style="fill: rgb(255, 254, 240); stroke: rgb(17, 17, 17); stroke-width: 1.514px;"/>
    <text class="label" font-weight="bold" x="0" y="0" style="white-space: pre;" transform="matrix(1.018278, 0, 0, 1, 101.440921, 610.468646)">Legenda:</text>
    <line class="signal-line-active" x1="101.441" y1="640.469" x2="162.538" y2="640.469" style="stroke-width: 2.523;"/>
    <text class="annotation" x="70" y="35" style="white-space: pre;" transform="matrix(1.018278, 0, 0, 1, 101.440921, 610.468646)">Sygnał sterujący (utrzymanie)</text>
    <line class="water-line-hot-inactive" x1="101.441" y1="665.469" x2="162.538" y2="665.469" style="stroke-width: 3.532;"/>
    <text class="annotation" x="70" y="60" style="white-space: pre;" transform="matrix(1.018278, 0, 0, 1, 101.440921, 610.468646)">Woda grzewcza (min. 20%)</text>
    <line class="water-line-return-inactive" x1="101.441" y1="690.469" x2="162.538" y2="690.469" style="stroke-width: 3.532;"/>
    <text class="annotation" x="70" y="85" style="white-space: pre;" transform="matrix(1.018278, 0, 0, 1, 101.440921, 610.468646)">Woda powrotna (min.)</text>
    <line class="air-line-inactive" x1="101.441" y1="715.469" x2="162.538" y2="715.469" style="stroke-width: 3.532;"/>
    <text class="annotation" x="70" y="110" style="white-space: pre;" transform="matrix(1.018278, 0, 0, 1, 101.440921, 610.468646)">Powietrze (brak przepływu)</text>
    <text class="annotation" x="0" y="20" style="white-space: pre;" transform="matrix(1.018278, 0, 0, 1, 103.549281, 723.616599)">SP (Set Point) - wartość zadana = CV = 20%</text>
    <text class="annotation" x="0" y="40" style="white-space: pre;" transform="matrix(1.018278, 0, 0, 1, 101.968005, 724.670737)">PV (Process Variable) - ignorowane</text>
    <text class="annotation" x="0" y="60" style="white-space: pre;" transform="matrix(1.018278, 0, 0, 1, 101.968005, 724.670737)">CV (Control Variable) = 20% (stałe)</text>
    <text class="annotation" x="0" y="80" style="white-space: pre;" transform="matrix(1.018278, 0, 0, 1, 101.968005, 724.670737)">Pzmin = 20% - minimalne otwarcie (ochrona przed zamrożeniem)</text>
  </g>
  
  
  <rect class="regulator" x="144.449" y="313.704" width="203.656" height="150" rx="5" style="stroke-width: 2.523;"/>
  <text class="label" text-anchor="middle" x="250" y="330" font-weight="bold" style="white-space: pre;" fill="#856404" transform="matrix(1.0182780027389526, 0, 0, 1, -8.293183326721191, 13.704235076904297)">Regulator PID</text>
  <text class="small-label" text-anchor="middle" x="250" y="350" style="white-space: pre;" fill="#856404" transform="matrix(1.0182780027389526, 0, 0, 1, -8.293183326721191, 13.704235076904297)">Tryb: UTRZYMANIE</text>
  <text class="small-label" x="170" y="370" style="white-space: pre;" transform="matrix(1.0182780027389526, 0, 0, 1, -8.293183326721191, 13.704235076904297)">Parametry:</text>
  <text class="param-label" x="180" y="390" style="white-space: pre;" transform="matrix(1.0182780027389526, 0, 0, 1, -8.293183326721191, 13.704235076904297)">Kp - (nieaktywne)</text>
  <text class="param-label" x="180" y="410" style="white-space: pre;" transform="matrix(1.0182780027389526, 0, 0, 1, -8.293183326721191, 13.704235076904297)">Ti - (nieaktywne)</text>
  <text class="param-label" x="180" y="430" style="white-space: pre;" transform="matrix(1.0182780027389526, 0, 0, 1, -8.293183326721191, 13.704235076904297)">Td - (nieaktywne)</text>
  
  <line class="signal-line-active" marker-end="url(#arrow-head)" x1="42.621" y1="343.704" x2="144.448" y2="343.704" style="stroke-width: 2.523;"/>
  <text class="annotation" x="60" y="320" style="white-space: pre;" fill="#856404" font-weight="bold" transform="matrix(1.0182780027389526, 0, 0, 1, -33.06624221801758, -12.1668701171875)">SP (wartość zadana)</text>
  <text class="param-label" x="60" y="340" style="white-space: pre;" fill="#856404" transform="matrix(1.0182780027389526, 0, 0, 1, -5.130657196044922, -10.344094276428223)">CV = 20% (stałe)</text>
  
  <line class="signal-line" marker-end="url(#arrow-head)" x1="246.276" y1="573.104" x2="246.276" y2="463.704" style="stroke-width: 2.523;"/>
  <text class="annotation" x="260" y="490" style="white-space: pre;" fill="#999" font-weight="bold" transform="matrix(1.0182780027389526, 0, 0, 1, -8.293183326721191, 13.704235076904297)">PV (ignorowane)</text>
  
  <line class="signal-line-active" marker-end="url(#arrow-head)" x1="348.104" y1="388.704" x2="500.532" y2="388.704" style="stroke-width: 2.523;"/>
  <text class="annotation" x="360" y="365" style="white-space: pre;" fill="#856404" font-weight="bold" transform="matrix(1.0182780027389526, 0, 0, 1, -12.776884078979492, -25.52952003479004)">CV (sygnał sterujący)</text>
  <text class="param-label" x="360" y="385" style="white-space: pre;" fill="#856404" transform="matrix(1.0182780027389526, 0, 0, 1, -11.826181411743164, -29.300888061523438)">Zawór: 20%</text>
  <text class="param-label" x="360" y="400" style="white-space: pre;" fill="#856404" transform="matrix(1.0182780027389526, 0, 0, 1, -13.193368911743164, -27.92055320739746)">(utrzymanie stałe)</text>
  
  <rect class="valve" x="501.373" y="338.448" width="101.828" height="110" rx="3" style="stroke-width: 2.523;"/>
  <text class="label" text-anchor="middle" x="50" y="30" font-weight="bold" style="white-space: pre;" fill="#888" transform="matrix(1.0182780027389526, 0, 0, 1, 503.4813232421875, 354.7877502441406)">Zawór</text>
  <text class="label" text-anchor="middle" x="50" y="50" style="white-space: pre;" fill="#888" transform="matrix(1.0182780027389526, 0, 0, 1, 502.0626220703125, 354.4773864746094)">regulacyjny</text>
  <text class="param-label" text-anchor="middle" x="50" y="70" style="white-space: pre;" fill="#856404" font-weight="bold" transform="matrix(1.0182780027389526, 0, 0, 1, 502.0626220703125, 354.4773864746094)">20% (stałe)</text>
  
  <rect class="heater" x="755.415" y="225.227" width="305.483" height="288.477" rx="5" style="stroke-width: 2.523;"/>
  <text class="label" text-anchor="middle" x="900" y="280" font-weight="bold" font-size="22" style="white-space: pre;" fill="#888" transform="matrix(1.0182780027389526, 0, 0, 1, -8.293183326721191, 13.704235076904297)">NAGRZEWNICA</text>
  <text class="label" text-anchor="middle" x="900" y="305" font-weight="bold" font-size="20" style="white-space: pre;" fill="#888" transform="matrix(1.0182780027389526, 0, 0, 1, -8.293183326721191, 13.704235076904297)">(Nx) - NIEAKTYWNA</text>
  
  <g transform="matrix(1.0182780027389526, 0, 0, 1, 785.9636840820312, 343.7042541503906)">
    <path d="M 0,0 Q 15,-15 30,0 T 60,0 T 90,0 T 120,0 T 150,0 T 180,0 T 210,0 T 240,0" stroke="#daa" stroke-width="3" fill="none" stroke-dasharray="8 4"/>
    <path d="M 0,20 Q 15,5 30,20 T 60,20 T 90,20 T 120,20 T 150,20 T 180,20 T 210,20 T 240,20" stroke="#daa" stroke-width="3" fill="none" stroke-dasharray="8 4"/>
    <path d="M 0,40 Q 15,25 30,40 T 60,40 T 90,40 T 120,40 T 150,40 T 180,40 T 210,40 T 240,40" stroke="#daa" stroke-width="3" fill="none" stroke-dasharray="8 4"/>
  </g>
  
  <line class="water-line-hot-inactive" marker-end="url(#arrow-head)" x1="603.515" y1="389.048" x2="754.888" y2="389.048" style="stroke-width: 3.532;"/>
  <text class="annotation" x="660" y="310" fill="#daa" font-weight="bold" style="white-space: pre;" transform="matrix(1.0182780027389526, 0, 0, 1, -55.730960845947266, 72.21082305908203)">Woda grzewcza (min.)</text>
  
  <line class="water-line-return-inactive" x1="908.158" y1="552.176" x2="907.801" y2="479.56" style="stroke-width: 3.532; transform-origin: 907.98px 515.868px;" transform="matrix(-1, 0, 0, -1, -0.00012207, 0)"/>
  <line class="water-line-return-inactive" marker-end="url(#arrow-head)" x1="910.003" y1="552.149" x2="553.08" y2="552.149" style="stroke-width: 3.532;"/>
  <line class="water-line-return-inactive" x1="552.287" y1="552.305" x2="552.287" y2="449.502" style="stroke-width: 3.532;"/>
  <text class="annotation" x="700" y="520" fill="#abd" font-weight="bold" style="white-space: pre;" transform="matrix(1.0182780027389526, 0, 0, 1, -15.888303756713867, 26.350719451904297)">Woda powrotna (min.)</text>
  
  <line class="air-line-inactive" marker-end="url(#arrow-head)" x1="50.008" y1="264.465" x2="753.834" y2="264.465" style="stroke-width: 3.532;"/>
  <text class="annotation" x="640" y="440" fill="#ccc" font-weight="bold" style="white-space: pre;" transform="matrix(1.0182780027389526, 0, 0, 1, -332.39666748046875, -184.1085205078125)">Brak przepływu</text>
  
  <line class="air-line-inactive" marker-end="url(#arrow-head)" x1="1063.01" y1="261.676" x2="1361.79" y2="261.676" style="stroke-width: 3.532;"/>
  <text class="annotation" x="1100" y="365" fill="#ccc" font-weight="bold" style="white-space: pre;" transform="matrix(1.0182780027389526, 0, 0, 1, -34.3093376159668, -111.80322265625)">Brak przepływu</text>
  
  <circle class="sensor" cx="1150" cy="450" r="35" transform="matrix(1.0182780027389526, 0, 0, 1, 96.80728149414064, -187.710205078125)"/>
  <text class="label" text-anchor="middle" x="1150" y="455" font-size="16" style="white-space: pre;" fill="#888" transform="matrix(1.0182780027389526, 0, 0, 1, 96.5377883911133, -183.0087890625)">T</text>
  <text class="small-label" text-anchor="middle" x="1150" y="505" style="white-space: pre;" fill="#888" transform="matrix(1.0182780027389526, 0, 0, 1, 95.53676605224611, -323.64935302734375)">Czujnik</text>
  <text class="small-label" text-anchor="middle" x="1150" y="520" style="white-space: pre;" fill="#888" transform="matrix(1.0182780027389526, 0, 0, 1, 98.25317382812501, -321.0287170410156)">temperatury</text>
  
  <line class="signal-line" x1="1269.59" y1="297.788" x2="1269.59" y2="571.587" style="stroke-width: 2.523;"/>
  <line class="signal-line" x1="1271.83" y1="574.983" x2="245.929" y2="574.983" style="stroke-width: 2.523;"/>
  
  <g transform="matrix(1, 0, 0, 1, -39.53137969970703, -20.556371688842773)">
    <g>
      <rect x="745.233" y="643.704" width="391.385" height="190.542" fill="#fffef0" stroke="#111" stroke-width="1.5" rx="5" style="stroke-width: 1.514;"/>
    </g>
    <text class="label" font-weight="bold" x="0" y="0" style="white-space: pre;" fill="#856404" transform="matrix(1.018278, 0, 0, 1, 755.415367, 663.704304)">Stan nieaktywny:</text>
    <text class="annotation" x="0" y="25" style="white-space: pre;" transform="matrix(1.018278, 0, 0, 1, 755.415367, 663.704304)">• Regulator PID w trybie UTRZYMANIE - utrzymuje 20%</text>
    <text class="annotation" x="0" y="45" style="white-space: pre;" transform="matrix(1.018278, 0, 0, 1, 755.415367, 663.704304)">• SP = CV = 20% (stałe), PV ignorowane</text>
    <text class="annotation" x="0" y="70" style="white-space: pre;" transform="matrix(1.018278, 0, 0, 1, 755.415367, 663.704304)">• Zawór regulacyjny: 20% (stała pozycja ochronna)</text>
    <text class="annotation" x="0" y="95" style="white-space: pre;" transform="matrix(1.018278, 0, 0, 1, 755.415367, 663.704304)">• Minimalny przepływ wody (20% - ochrona antymaroz.)</text>
    <text class="annotation" x="0" y="120" style="white-space: pre;" transform="matrix(1.018278, 0, 0, 1, 755.415367, 663.704304)">• Przepustnice zamknięte - brak przepływu powietrza</text>
    <text class="annotation" x="0" y="145" style="white-space: pre;" transform="matrix(1.018278, 0, 0, 1, 755.415367, 663.704304)">• Nagrzewnica nie oddaje ciepła</text>
  </g>
</svg>
